<svg xmlns="http://www.w3.org/2000/svg" width="1024" height="1024" viewBox="0 0 1024 1024">
<g>
<path d="M 737.28 707.46 C719.58,710.55 697.62,709.10 678.62,703.58 C662.62,698.93 637.51,682.53 622.25,666.77 C614.13,658.38 614.00,658.16 614.00,653.20 C614.00,647.18 617.07,642.79 622.54,640.99 C628.28,639.09 631.55,640.57 640.87,649.26 C658.97,666.15 677.00,676.86 694.52,681.11 C704.71,683.58 724.73,684.08 733.50,682.07 C759.18,676.21 784.27,662.09 806.20,641.16 C812.05,635.58 813.50,634.70 817.60,634.24 C830.09,632.83 836.42,645.71 828.23,655.87 C823.64,661.56 806.54,675.62 795.00,683.19 C775.62,695.90 755.88,704.20 737.28,707.46 Z" fill="rgb(24,1,172)"/>
<path d="M 0.00 0.00 L 1024.00 0.00 L 1024.00 1024.00 L 0.00 1024.00 ZM 309.32 704.93 C353.68,708.35 392.71,702.19 432.53,685.51 C479.59,665.80 521.98,628.63 549.45,583.00 C561.18,563.51 571.65,538.72 576.89,518.00 C583.37,492.38 584.40,483.82 584.43,455.50 C584.45,427.36 583.65,419.92 577.93,395.00 C569.81,359.65 552.45,324.38 528.80,295.19 C520.50,284.95 501.42,265.90 491.50,257.95 C460.61,233.19 421.15,214.37 384.70,207.01 C339.37,197.86 287.31,201.64 246.14,217.08 C222.09,226.10 195.29,241.16 175.90,256.55 C157.28,271.33 135.72,294.95 122.38,315.18 C105.81,340.31 91.90,373.49 86.08,401.79 C79.29,434.74 79.51,476.04 86.62,507.50 C101.30,572.43 139.72,628.31 194.50,664.44 C205.95,672.00 228.72,683.81 241.00,688.57 C261.92,696.68 290.24,703.46 309.32,704.93 ZM 359.51 681.50 C347.88,682.84 322.28,683.29 313.00,682.31 C275.62,678.38 242.41,667.26 212.09,648.50 C155.88,613.73 117.09,555.12 106.46,488.88 C104.21,474.90 103.41,442.56 104.98,429.06 C111.16,375.66 133.74,328.91 171.41,291.50 C200.76,262.35 233.20,243.62 273.73,232.43 C294.18,226.78 313.25,224.70 339.00,225.31 C372.45,226.10 393.91,230.64 423.29,243.16 C451.72,255.27 473.01,269.79 495.50,292.42 C537.01,334.18 559.87,387.60 561.72,447.14 C562.78,481.57 557.54,510.89 544.87,541.38 C528.96,579.66 503.17,612.70 469.50,637.94 C438.67,661.05 398.31,677.03 359.51,681.50 ZM 644.00 757.96 C659.50,759.43 696.47,758.41 712.00,756.09 C789.60,744.47 865.23,712.51 917.35,669.32 C931.05,657.97 929.75,658.80 946.00,651.08 C969.70,639.81 984.03,628.67 985.61,620.27 C987.13,612.15 979.40,590.94 966.91,568.99 C963.00,562.12 955.21,547.05 949.59,535.50 C935.79,507.16 925.67,490.51 904.64,461.59 C876.99,423.56 841.43,385.61 787.12,336.16 C769.21,319.85 756.47,310.91 740.46,303.41 C720.57,294.10 705.30,290.56 685.00,290.56 C649.79,290.56 623.53,302.64 614.03,323.21 C606.41,339.70 605.96,365.45 612.94,385.42 C615.25,392.02 619.06,398.98 621.47,400.97 C622.40,401.75 629.02,402.85 637.72,403.67 C645.79,404.43 652.56,405.22 652.76,405.43 C652.97,405.63 652.43,408.18 651.57,411.08 C649.69,417.41 649.53,430.52 651.29,434.00 C655.87,443.04 685.14,445.95 706.72,439.50 C711.68,438.02 723.38,430.05 737.64,418.43 C740.63,415.99 743.48,414.00 743.96,414.00 C745.23,414.00 756.63,434.88 766.43,455.15 C775.59,474.07 786.04,498.51 790.86,512.21 C794.51,522.62 799.33,540.00 798.73,540.60 C798.50,540.84 797.18,540.14 795.80,539.06 C790.64,535.00 775.17,527.96 766.00,525.50 C751.94,521.72 731.39,519.72 714.50,520.49 C645.06,523.63 582.26,552.92 554.34,595.18 C538.00,619.91 533.43,645.93 540.06,676.52 C545.86,703.31 558.65,723.48 578.34,736.92 C593.61,747.33 619.51,755.64 644.00,757.96 ZM 325.50 613.33 C331.97,614.13 347.83,613.93 354.00,612.96 C375.48,609.59 397.41,598.18 415.35,581.04 C426.00,570.87 443.99,546.57 444.00,542.34 C444.00,540.86 424.91,531.65 424.01,532.71 C423.64,533.14 420.75,537.46 417.57,542.30 C406.22,559.62 388.45,575.62 371.84,583.49 C359.38,589.39 349.54,591.32 335.50,590.64 C321.41,589.96 313.49,587.90 300.58,581.59 C288.88,575.88 277.00,567.10 266.12,556.12 L 257.44 547.36 L 248.97 553.75 C244.31,557.26 240.36,560.51 240.19,560.98 C239.81,562.04 249.89,573.23 257.11,579.77 C277.94,598.62 301.92,610.38 325.50,613.33 ZM 404.03 456.46 C429.20,463.49 454.41,440.32 449.90,414.31 C445.60,389.51 418.96,375.99 396.57,387.25 C390.08,390.51 382.54,398.42 379.38,405.28 C375.60,413.48 375.37,425.40 378.83,434.15 C382.92,444.49 392.95,453.36 404.03,456.46 ZM 235.42 470.63 C250.98,476.42 269.13,470.55 278.67,456.63 C291.52,437.90 284.11,412.13 263.00,402.11 C258.21,399.84 256.21,399.50 247.50,399.50 C238.64,399.50 236.87,399.81 231.97,402.22 C224.90,405.69 217.69,412.90 214.22,419.97 C211.78,424.92 211.50,426.59 211.51,436.00 C211.51,445.50 211.77,446.99 214.26,451.71 C219.46,461.61 225.38,466.90 235.42,470.63 Z" fill="rgb(31,44,66)"/>
<path d="M 576.08 394.15 C577.68,397.14 577.91,395.69 577.16,391.77 C577.43,392.85 577.68,393.92 577.93,395.00 C578.05,395.53 578.17,396.05 578.29,396.56 L 577.54 400.26 C577.01,402.84 577.18,404.51 578.05,405.56 C578.75,406.40 579.46,409.44 579.63,412.30 C580.26,422.72 581.21,430.52 581.98,431.50 C582.41,432.05 582.58,439.92 582.35,449.00 C582.32,450.07 582.29,451.08 582.27,452.03 C581.93,465.02 581.87,467.43 582.19,469.80 C582.28,470.51 582.41,471.22 582.58,472.22 C582.98,474.56 582.62,477.67 581.61,480.64 C580.73,483.22 580.20,485.53 580.44,485.77 C580.68,486.01 580.43,487.38 579.88,488.81 C579.34,490.24 578.88,494.11 578.87,497.40 C578.85,500.91 578.25,504.23 577.42,505.42 C576.64,506.53 576.00,509.49 576.00,511.99 C576.00,514.62 575.16,518.10 574.00,520.26 C572.90,522.31 572.00,524.83 572.00,525.86 C572.00,526.89 571.16,528.80 570.13,530.12 C568.43,532.28 566.78,538.32 566.46,543.50 C566.22,547.44 565.98,548.00 564.50,548.00 C563.67,548.00 563.00,548.66 563.00,549.47 C563.00,550.27 562.36,552.41 561.57,554.22 C560.79,556.02 559.32,559.68 558.32,562.35 C557.13,565.52 555.68,567.51 554.14,568.12 C552.22,568.86 551.86,569.59 552.22,572.04 C552.59,574.58 551.66,576.25 546.33,582.67 C542.77,586.94 540.00,591.25 540.00,592.49 C540.00,593.70 539.10,595.50 538.00,596.50 C536.90,597.50 536.00,598.91 536.00,599.65 C536.00,600.38 535.10,601.55 534.00,602.23 C532.90,602.92 532.00,604.17 532.00,605.01 C532.00,605.85 529.89,608.33 527.30,610.52 C519.23,617.36 515.20,622.09 515.75,624.09 C516.22,625.81 504.40,636.50 499.85,638.47 C497.22,639.60 494.61,641.62 493.67,643.24 C492.79,644.79 490.70,646.83 489.04,647.78 C487.37,648.73 486.01,650.06 486.01,650.75 C486.00,651.44 485.36,652.00 484.57,652.00 C483.79,652.00 482.33,653.04 481.32,654.30 C479.23,656.95 472.87,660.70 468.55,661.84 C466.82,662.30 464.92,663.83 463.97,665.55 C462.96,667.37 461.05,668.86 458.91,669.49 C457.02,670.05 454.37,671.29 453.02,672.25 C451.66,673.21 449.77,674.00 448.81,674.00 C447.85,674.00 445.59,675.27 443.78,676.83 C439.61,680.42 432.13,684.00 428.80,684.00 C427.39,684.00 424.94,684.67 423.36,685.49 C421.79,686.32 419.83,687.00 419.00,687.01 C418.17,687.02 414.85,688.37 411.61,690.01 C408.37,691.66 404.54,693.01 403.11,693.02 C401.67,693.03 399.38,693.92 398.00,695.00 C396.42,696.23 393.92,696.96 391.22,696.98 C388.86,696.99 385.37,697.66 383.45,698.46 C379.61,700.06 374.72,700.89 365.24,701.54 C361.80,701.77 355.95,702.53 352.24,703.22 C345.06,704.56 328.76,704.83 320.50,703.75 C317.75,703.39 315.50,703.04 315.50,702.97 C315.50,702.55 310.60,701.86 305.00,701.49 C293.88,700.75 284.59,699.39 282.32,698.17 C281.11,697.53 278.19,697.00 275.82,696.99 C273.19,696.99 270.32,696.21 268.50,695.00 C266.85,693.91 264.02,693.01 262.21,693.01 C260.41,693.00 257.93,692.38 256.71,691.61 C255.50,690.85 252.93,689.95 251.00,689.61 C243.62,688.31 242.68,688.02 241.03,686.53 C240.10,685.69 239.01,685.00 238.61,685.00 C237.98,685.00 225.46,679.34 221.00,677.04 C220.18,676.62 219.49,675.23 219.48,673.96 C219.47,672.69 218.90,671.47 218.23,671.24 C217.55,671.02 217.00,671.32 217.00,671.92 C217.00,675.17 208.22,671.60 203.37,666.37 C201.35,664.21 199.30,663.00 197.62,663.00 C196.10,663.00 194.50,662.17 193.77,661.00 C193.08,659.90 192.03,659.00 191.44,659.00 C190.85,659.00 189.38,657.88 188.19,656.50 C186.99,655.12 185.41,654.00 184.68,654.00 C183.95,654.00 182.26,652.83 180.92,651.41 C179.59,649.98 177.31,648.29 175.84,647.66 C172.17,646.05 161.00,636.07 161.00,634.38 C161.00,633.62 160.46,633.00 159.79,633.00 C158.03,633.00 141.00,614.85 141.00,612.97 C141.00,612.09 139.54,610.05 137.75,608.43 C135.96,606.82 134.37,604.60 134.22,603.50 C133.42,597.73 133.03,597.12 130.25,597.31 C127.94,597.47 127.45,597.06 127.18,594.75 C127.01,593.24 126.00,591.53 124.93,590.96 C123.87,590.40 123.00,589.53 123.00,589.05 C123.00,588.57 121.40,585.77 119.45,582.84 C117.50,579.90 115.64,576.25 115.32,574.72 C115.00,573.19 113.69,571.12 112.41,570.11 C110.82,568.86 110.15,567.39 110.29,565.45 C110.44,563.50 109.88,562.29 108.50,561.56 C107.40,560.98 106.35,559.38 106.17,558.00 C105.99,556.62 104.96,554.81 103.89,553.97 C102.60,552.96 102.01,551.43 102.16,549.47 C102.35,546.96 99.82,540.19 95.91,532.76 C95.41,531.81 95.00,529.73 95.00,528.14 C95.00,526.55 94.32,524.68 93.50,524.00 C92.68,523.32 92.00,521.49 92.00,519.94 C92.00,518.39 91.55,516.84 91.00,516.50 C90.45,516.16 89.99,514.22 89.99,512.19 C89.98,510.16 89.30,506.57 88.48,504.22 C87.56,501.58 87.22,498.46 87.60,496.10 C88.24,492.09 86.63,487.49 84.95,488.53 C84.43,488.85 84.00,488.39 84.00,487.50 C84.00,486.61 84.45,486.16 85.01,486.50 C87.02,487.75 87.14,483.95 85.27,478.29 C83.58,473.18 83.40,470.13 83.72,452.50 C84.22,424.96 84.42,421.82 85.81,419.29 C86.60,417.85 86.80,415.18 86.39,411.62 C85.84,407.02 86.08,405.70 87.87,403.18 C89.25,401.24 90.00,398.66 90.01,395.85 C90.02,393.08 90.92,389.94 92.48,387.20 C93.83,384.84 95.14,381.24 95.38,379.20 C95.63,377.17 96.80,372.92 97.98,369.76 C99.17,366.61 99.87,363.60 99.55,363.08 C99.23,362.56 99.48,361.82 100.11,361.43 C100.74,361.05 102.59,357.75 104.22,354.11 C105.86,350.48 108.03,346.59 109.05,345.48 C110.07,344.37 111.79,340.65 112.86,337.20 C113.95,333.69 116.39,329.01 118.40,326.55 C120.38,324.14 122.00,321.28 122.00,320.19 C122.00,318.94 122.63,318.27 123.72,318.36 C124.87,318.45 125.84,317.32 126.60,315.00 C127.36,312.68 128.65,311.18 130.41,310.54 C132.67,309.73 132.98,309.18 132.45,306.79 C131.97,304.60 132.26,303.83 133.79,303.25 C135.79,302.48 146.00,289.83 146.00,288.12 C146.00,287.59 147.51,286.23 149.37,285.08 C151.22,283.94 153.92,281.20 155.38,279.00 C156.84,276.80 158.40,275.00 158.86,275.00 C160.02,275.00 163.29,271.86 164.59,269.49 C165.19,268.39 166.99,266.87 168.59,266.10 C170.19,265.33 173.19,263.20 175.25,261.35 C177.32,259.51 179.47,258.00 180.03,258.00 C180.59,258.00 181.46,256.93 181.95,255.62 C182.65,253.78 183.41,253.36 185.33,253.72 C187.27,254.09 187.96,253.69 188.54,251.85 C189.41,249.04 190.76,248.04 193.65,248.02 C195.10,248.01 196.12,247.09 196.77,245.22 C197.43,243.33 198.50,242.39 200.12,242.27 C201.43,242.18 203.11,241.19 203.85,240.08 C204.59,238.98 208.87,236.66 213.35,234.94 C217.83,233.22 222.19,231.20 223.03,230.45 C223.88,229.70 227.22,227.91 230.46,226.48 C233.70,225.04 237.46,223.00 238.81,221.94 C240.16,220.87 242.35,220.00 243.67,220.00 C244.99,220.00 247.12,219.31 248.41,218.47 C249.70,217.62 251.76,216.74 253.00,216.50 C254.24,216.26 256.23,215.42 257.43,214.64 C258.63,213.85 260.77,213.42 262.18,213.69 C263.59,213.96 266.13,213.47 267.82,212.59 C269.52,211.72 272.39,210.99 274.20,210.98 C279.18,210.95 294.29,208.11 295.42,206.98 C295.96,206.44 299.66,206.00 303.64,206.00 C307.62,206.00 311.16,205.55 311.50,205.00 C312.31,203.68 351.66,203.65 352.48,204.96 C352.80,205.49 356.46,205.88 360.61,205.83 C364.98,205.78 368.62,206.22 369.27,206.87 C369.89,207.49 372.00,207.96 373.95,207.90 C376.84,207.82 380.97,206.91 381.56,206.40 C382.61,206.59 383.66,206.80 384.70,207.01 C385.04,207.08 385.37,207.15 385.71,207.21 C384.00,206.93 384.08,207.28 384.95,208.90 C385.56,210.06 386.96,211.00 388.05,211.00 C391.01,211.00 404.01,214.76 405.60,216.08 C406.36,216.71 410.21,217.84 414.16,218.60 C418.46,219.42 422.19,220.77 423.48,221.98 C424.66,223.09 426.70,224.00 428.00,224.00 C430.58,224.00 438.70,227.61 440.82,229.70 C441.55,230.41 443.22,231.00 444.54,231.00 C445.91,231.00 447.39,231.86 448.00,233.00 C448.69,234.30 450.09,235.00 451.98,235.00 C453.57,235.00 455.16,235.45 455.50,236.01 C455.85,236.56 459.22,239.03 463.00,241.50 C466.78,243.97 470.15,246.43 470.48,246.97 C470.81,247.51 472.75,248.40 474.79,248.95 C479.94,250.35 489.35,259.32 488.50,262.01 C487.77,264.29 487.95,264.35 491.42,263.03 C493.37,262.29 494.28,262.42 495.24,263.56 C495.93,264.39 497.17,265.74 498.00,266.55 C504.77,273.25 505.99,274.64 505.99,275.63 C506.00,276.26 508.09,278.28 510.65,280.13 C517.50,285.10 524.90,293.08 525.81,296.50 C526.34,298.46 527.35,299.61 528.74,299.81 C530.25,300.03 531.30,301.44 532.43,304.74 C533.29,307.28 534.00,310.18 534.00,311.18 C534.00,312.54 534.76,313.00 537.00,313.00 C539.34,313.00 540.00,313.44 540.00,315.01 C540.00,316.11 541.12,317.99 542.50,319.19 C543.88,320.38 545.00,321.95 545.00,322.68 C545.00,323.41 545.44,324.00 545.98,324.00 C547.50,324.00 552.98,334.19 552.99,337.03 C553.00,338.42 553.90,340.33 555.00,341.27 C556.10,342.21 557.00,343.87 557.00,344.96 C557.00,346.04 557.90,347.41 559.00,348.00 C560.10,348.59 561.00,349.95 561.00,351.03 C561.00,352.11 562.35,355.85 564.00,359.34 C565.65,362.84 567.00,366.46 567.00,367.40 C567.00,368.33 567.71,370.47 568.57,372.14 C569.44,373.81 569.83,375.93 569.45,376.84 C568.04,380.23 568.17,382.75 569.74,382.62 C571.45,382.49 574.81,387.48 574.93,390.32 C574.97,391.31 575.49,393.04 576.08,394.15 ZM 299.00 683.33 C303.56,684.08 308.23,684.26 310.92,683.78 C313.71,683.29 315.31,682.85 315.66,682.53 C325.43,683.14 344.65,682.81 356.12,681.84 C351.99,682.38 350.92,682.78 352.51,683.12 C357.31,684.15 363.83,684.08 364.50,683.00 C364.84,682.45 367.51,682.00 370.44,682.00 C373.36,682.00 377.41,681.31 379.42,680.47 C381.44,679.63 383.52,679.21 384.06,679.54 C384.59,679.86 386.44,679.43 388.17,678.57 C389.89,677.71 392.36,677.00 393.64,677.00 C397.01,677.00 405.04,675.04 408.33,673.40 C409.89,672.63 411.96,672.00 412.93,672.00 C413.90,672.00 415.50,671.10 416.50,670.00 C417.50,668.90 419.56,668.00 421.10,668.00 C422.63,668.00 424.16,667.55 424.50,667.00 C424.84,666.45 426.22,666.00 427.57,666.00 C428.92,666.00 430.79,665.10 431.73,664.00 C432.67,662.90 434.37,662.00 435.50,662.00 C436.63,662.00 438.33,661.10 439.27,660.00 C440.21,658.90 441.88,658.00 442.97,658.00 C444.06,658.00 447.33,656.20 450.23,654.00 C453.13,651.81 456.62,650.00 458.00,649.99 C461.62,649.96 463.22,648.61 462.84,645.89 C462.55,643.83 462.99,643.43 466.02,643.00 C468.60,642.63 470.71,641.21 473.97,637.67 C476.41,635.01 480.01,631.99 481.96,630.96 C486.25,628.69 494.47,621.18 495.33,618.73 C495.67,617.75 496.73,616.66 497.67,616.29 C499.75,615.50 509.00,605.95 509.00,604.61 C509.00,604.08 511.21,601.11 513.92,598.00 C516.62,594.89 519.90,590.45 521.21,588.12 C522.52,585.79 524.69,583.34 526.04,582.66 C527.43,581.97 528.51,580.54 528.53,579.38 C528.55,578.25 530.46,575.11 532.78,572.41 C535.34,569.43 536.99,566.50 536.99,564.94 C537.00,563.53 537.66,561.51 538.47,560.44 C539.28,559.37 539.95,557.51 539.97,556.29 C539.99,555.07 540.83,553.27 541.85,552.29 C543.74,550.45 547.00,544.42 547.00,542.75 C547.00,542.23 547.84,540.61 548.87,539.15 C549.89,537.69 551.03,534.46 551.39,531.97 C551.76,529.48 552.72,526.17 553.53,524.61 C554.34,523.05 555.00,520.78 555.00,519.57 C555.00,518.36 556.12,515.04 557.50,512.19 C558.88,509.34 560.01,505.77 560.02,504.25 C560.04,502.74 560.52,499.48 561.11,497.00 C561.69,494.52 562.31,488.00 562.49,482.50 C562.67,477.00 563.39,469.80 564.10,466.50 C565.43,460.23 565.50,456.94 564.45,448.30 C564.08,445.29 564.29,441.65 564.94,439.67 C565.91,436.75 565.78,435.75 564.09,432.87 C562.63,430.40 562.13,427.81 562.19,423.19 C562.24,419.67 561.78,416.38 561.14,415.74 C560.51,415.11 560.00,412.10 559.99,409.05 C559.99,406.00 559.35,402.27 558.56,400.77 C557.78,399.27 557.14,396.57 557.13,394.77 C557.12,388.75 555.81,383.97 553.89,382.94 C552.82,382.37 552.00,380.86 552.00,379.47 C552.00,378.12 550.17,372.62 547.93,367.25 C545.69,361.89 543.37,356.19 542.78,354.60 C542.19,353.00 540.87,350.87 539.85,349.85 C538.83,348.83 538.00,346.65 538.00,345.00 C538.00,343.07 537.49,342.00 536.58,342.00 C535.79,342.00 534.84,340.56 534.45,338.75 C534.05,336.96 532.89,334.91 531.87,334.19 C530.84,333.47 530.00,332.29 530.00,331.57 C530.00,330.84 529.33,329.69 528.52,329.02 C527.71,328.34 526.44,326.60 525.70,325.14 C524.97,323.69 523.88,321.60 523.29,320.50 C522.70,319.40 521.72,317.25 521.12,315.73 C520.52,314.21 519.01,312.56 517.76,312.07 C516.52,311.58 513.70,308.80 511.50,305.89 C506.85,299.75 486.63,279.00 485.29,279.00 C484.79,279.00 483.38,277.65 482.16,276.00 C480.94,274.35 479.44,273.00 478.83,273.00 C478.22,273.00 475.79,271.31 473.43,269.25 C467.14,263.76 464.29,261.80 456.50,257.59 C452.65,255.52 448.35,252.73 446.95,251.41 C445.54,250.08 443.49,249.00 442.39,249.00 C441.28,249.00 437.77,247.43 434.57,245.50 C431.37,243.57 427.97,242.00 427.00,242.00 C426.04,242.00 424.68,241.32 424.00,240.50 C423.32,239.68 421.93,239.00 420.91,239.00 C419.09,239.00 416.88,238.16 405.85,233.25 C402.27,231.65 399.32,230.95 397.79,231.34 C396.27,231.72 393.96,231.19 391.58,229.92 C388.95,228.51 386.89,228.09 384.83,228.54 C382.73,229.00 381.31,228.69 379.97,227.48 C378.55,226.19 377.18,225.93 374.43,226.45 C371.47,227.00 370.53,226.77 369.42,225.19 C368.48,223.85 366.28,223.03 362.28,222.51 C353.63,221.41 312.93,221.68 309.83,222.87 C307.96,223.59 306.26,223.55 304.11,222.74 C301.46,221.73 300.66,221.87 298.07,223.79 C296.36,225.06 293.62,226.00 291.66,226.00 C289.72,226.00 287.66,226.71 286.89,227.63 C285.68,229.09 285.85,229.20 288.52,228.66 C301.98,225.97 319.72,224.80 339.43,225.29 C351.12,225.59 361.37,226.35 371.04,227.77 C361.28,226.35 350.90,225.59 339.00,225.31 C314.01,224.72 295.32,226.66 275.55,231.94 C284.04,229.57 284.91,229.05 282.56,228.44 C280.50,227.91 278.74,228.19 276.72,229.35 C275.13,230.26 273.46,230.79 273.03,230.52 C271.24,229.41 260.19,232.36 255.91,235.08 C253.39,236.69 250.18,238.00 248.78,238.00 C247.39,238.00 245.68,238.68 245.00,239.50 C244.32,240.32 242.91,241.00 241.87,241.00 C240.84,241.00 238.31,241.90 236.26,243.00 C234.21,244.10 232.02,245.00 231.39,245.00 C230.76,245.00 229.68,245.68 229.00,246.50 C228.32,247.32 226.46,248.00 224.88,248.00 C223.02,248.00 222.00,248.52 222.00,249.46 C222.00,251.17 218.99,253.00 216.20,253.00 C215.14,253.00 212.02,255.21 209.27,257.92 C206.09,261.05 203.22,262.96 201.39,263.17 C199.80,263.35 198.60,264.03 198.72,264.67 C198.85,265.31 196.60,267.19 193.72,268.84 C188.16,272.03 183.00,276.46 183.00,278.04 C183.00,278.57 181.99,279.00 180.75,279.00 C178.59,279.00 167.00,288.79 167.00,290.61 C167.00,291.06 164.95,293.26 162.44,295.50 C159.94,297.74 157.79,300.24 157.67,301.06 C157.55,301.87 154.96,305.68 151.91,309.52 C148.86,313.36 146.07,317.29 145.72,318.25 C145.36,319.21 144.37,320.00 143.53,320.00 C142.56,320.00 142.00,320.93 142.00,322.56 C142.00,324.11 140.84,326.17 139.06,327.81 C137.44,329.29 134.96,333.02 133.55,336.10 C132.14,339.18 130.09,342.51 129.00,343.50 C127.90,344.50 127.00,345.84 127.00,346.48 C127.00,347.81 119.32,363.00 117.92,364.45 C117.41,364.97 117.00,366.86 117.00,368.65 C117.00,370.44 116.39,372.26 115.65,372.70 C113.62,373.91 110.00,385.75 110.00,391.19 C110.00,393.84 109.60,396.00 109.11,396.00 C107.72,396.00 106.68,399.07 106.39,404.00 C106.01,410.67 105.05,415.11 103.21,418.72 C101.84,421.41 101.78,422.49 102.79,425.29 C104.38,429.69 104.32,431.49 102.52,432.98 C101.32,433.98 101.16,435.91 101.66,443.05 C102.10,449.19 101.91,452.81 101.03,454.94 C99.95,457.55 100.01,458.37 101.47,460.59 C102.44,462.08 102.93,464.14 102.61,465.41 C102.31,466.63 102.52,471.20 103.09,475.56 C103.65,479.93 104.52,486.88 105.03,491.00 C106.98,507.11 107.69,510.63 109.70,514.29 C110.85,516.38 111.58,518.91 111.31,519.91 C111.05,520.92 111.76,523.77 112.89,526.25 C114.01,528.72 115.25,532.70 115.63,535.08 C116.01,537.46 117.60,541.84 119.16,544.80 C120.72,547.77 122.00,550.78 122.00,551.48 C122.00,552.18 122.68,553.32 123.50,554.00 C124.32,554.68 125.00,556.02 125.00,556.97 C125.00,557.91 125.90,559.50 127.00,560.50 C128.10,561.50 129.00,563.07 129.00,564.00 C129.00,564.93 129.90,566.50 131.00,567.50 C132.10,568.50 133.00,570.38 133.00,571.69 C133.00,572.99 133.69,574.33 134.54,574.65 C135.38,574.98 136.71,576.76 137.49,578.62 C138.26,580.48 139.37,582.00 139.95,582.00 C140.53,582.00 141.00,582.84 141.00,583.88 C141.00,584.91 141.70,586.34 142.56,587.05 C143.41,587.76 144.71,589.77 145.45,591.53 C146.96,595.16 151.43,599.73 154.75,601.05 C156.35,601.69 157.00,602.78 157.00,604.81 C157.00,606.81 157.69,608.00 159.25,608.74 C162.60,610.31 180.10,627.15 181.09,629.75 C181.67,631.26 182.78,632.00 184.48,632.00 C185.96,632.00 187.00,632.57 187.00,633.38 C187.00,635.34 194.63,642.00 196.86,642.00 C197.88,642.00 200.76,643.80 203.26,646.00 C205.76,648.20 208.28,650.00 208.87,650.00 C209.45,650.00 211.45,651.34 213.31,652.97 C215.17,654.60 218.68,656.79 221.11,657.83 C223.54,658.88 226.16,660.48 226.92,661.41 C227.89,662.58 229.15,662.91 231.07,662.49 C233.03,662.05 234.34,662.43 235.66,663.79 C236.67,664.84 239.98,666.53 243.00,667.55 C246.02,668.57 249.40,670.17 250.50,671.11 C251.60,672.04 254.75,673.02 257.50,673.28 C260.25,673.54 266.33,675.18 271.00,676.94 C275.67,678.70 282.20,680.57 285.50,681.11 C288.80,681.65 294.88,682.65 299.00,683.33 ZM 644.00 757.96 C640.18,757.60 636.33,757.09 632.50,756.45 C636.04,756.98 639.55,757.35 643.00,757.57 C652.00,758.14 652.35,758.09 649.67,756.60 C648.11,755.74 642.94,754.56 638.17,753.98 C633.40,753.40 628.66,752.67 627.62,752.36 C626.29,751.95 625.97,752.15 626.53,753.05 C628.02,755.46 620.22,753.27 616.27,750.17 C613.77,748.21 610.82,746.99 607.50,746.56 C599.73,745.54 584.21,739.25 582.31,736.36 C581.43,735.01 580.10,734.13 579.36,734.41 C578.53,734.73 577.78,733.97 577.39,732.43 C577.04,731.02 575.40,729.23 573.63,728.32 C568.56,725.72 560.85,717.19 557.86,710.87 C555.89,706.70 554.53,705.00 553.16,705.00 C551.72,705.00 550.79,703.67 549.51,699.75 C548.56,696.86 547.64,693.60 547.46,692.50 C547.08,690.11 544.83,684.04 543.63,682.16 C541.98,679.58 540.36,669.25 541.24,666.88 C541.82,665.31 541.57,663.16 540.46,660.25 C538.83,655.99 538.86,649.12 540.53,642.68 C540.98,640.94 540.77,638.94 539.99,637.47 C538.91,635.47 538.97,634.69 540.36,632.58 C541.26,631.20 542.00,628.82 542.00,627.29 C542.00,623.10 545.19,615.54 548.24,612.48 C549.73,610.99 551.23,608.14 551.56,606.14 C552.60,600.00 553.07,599.00 554.94,599.00 C557.30,599.00 558.83,597.02 558.42,594.50 C558.02,591.97 563.98,587.34 565.16,589.26 C565.75,590.22 566.18,590.22 567.16,589.24 C568.10,588.30 568.11,588.00 567.20,588.00 C566.53,588.00 566.00,586.66 566.00,584.98 C566.00,582.73 566.64,581.67 568.50,580.82 C569.88,580.19 571.00,579.06 571.00,578.31 C571.00,577.55 571.79,576.66 572.75,576.32 C573.71,575.98 575.71,574.53 577.19,573.10 C578.66,571.67 581.14,569.26 582.70,567.75 C584.25,566.24 585.94,565.00 586.45,565.00 C586.95,565.00 588.44,563.99 589.75,562.75 C592.33,560.31 600.46,555.50 608.66,551.58 C611.49,550.22 614.10,548.65 614.45,548.08 C615.28,546.73 623.77,543.00 626.00,543.00 C626.97,543.00 628.29,542.35 628.95,541.57 C629.60,540.78 631.85,539.24 633.95,538.14 C637.39,536.35 638.14,536.29 641.63,537.51 C645.16,538.74 645.63,538.70 647.00,536.98 C648.62,534.95 652.77,533.09 657.41,532.31 C659.02,532.05 661.93,530.97 663.90,529.91 C665.92,528.83 669.45,528.00 672.04,528.00 C674.55,528.00 677.05,527.55 677.59,527.01 C678.14,526.46 682.78,525.77 687.90,525.48 C693.03,525.19 697.98,524.55 698.91,524.05 C699.84,523.55 702.15,523.18 704.05,523.22 C705.95,523.27 708.28,522.96 709.24,522.55 C710.94,521.81 732.08,522.35 741.00,523.36 C743.47,523.64 748.42,524.16 752.00,524.52 C755.58,524.88 759.81,525.81 761.40,526.59 C763.00,527.37 765.04,528.00 765.94,528.00 C766.84,528.00 769.34,528.90 771.50,530.00 C773.66,531.10 776.38,532.00 777.56,532.00 C778.73,532.00 780.50,532.90 781.50,534.00 C782.50,535.10 784.36,536.00 785.65,536.00 C786.93,536.00 788.55,536.90 789.23,538.00 C789.92,539.10 791.04,540.00 791.73,540.00 C792.42,540.00 793.55,540.90 794.23,542.00 C795.75,544.43 797.74,544.55 800.17,542.35 C802.54,540.20 802.48,537.86 799.94,532.88 C798.81,530.66 798.02,527.87 798.19,526.67 C798.36,525.48 797.86,523.74 797.08,522.82 C796.31,521.89 794.90,518.29 793.96,514.82 C793.02,511.34 791.00,505.35 789.47,501.50 C787.94,497.65 786.49,492.64 786.25,490.37 C785.92,487.21 785.25,485.98 783.41,485.14 C782.08,484.54 781.00,483.37 781.00,482.56 C781.00,480.80 779.22,476.50 773.89,465.35 C771.75,460.87 770.00,456.31 770.00,455.22 C770.00,454.13 769.33,452.68 768.50,452.00 C767.67,451.32 767.00,450.41 767.00,449.98 C767.00,449.55 765.42,446.86 763.50,444.00 C761.58,441.14 760.00,438.24 760.00,437.55 C760.00,436.87 759.10,435.27 758.00,434.00 C756.90,432.73 756.00,431.05 756.00,430.25 C756.00,429.46 755.10,427.67 754.00,426.27 C752.90,424.87 752.00,422.67 752.00,421.37 C752.00,420.06 751.55,419.00 751.01,419.00 C750.46,419.00 749.01,417.46 747.78,415.58 C744.88,411.16 740.27,410.16 738.94,413.66 C738.45,414.95 737.38,416.00 736.56,416.00 C735.74,416.00 734.59,416.90 734.00,418.00 C733.41,419.10 732.21,420.00 731.33,420.00 C730.45,420.00 728.73,421.01 727.51,422.25 C726.28,423.49 724.08,425.40 722.60,426.50 C721.13,427.60 718.25,429.96 716.21,431.75 C714.17,433.53 711.49,434.99 710.25,435.00 C709.01,435.00 707.06,435.94 705.90,437.10 C704.47,438.53 702.99,439.04 701.23,438.70 C699.81,438.43 696.37,438.89 693.58,439.73 C689.65,440.90 686.46,441.07 679.50,440.46 C674.55,440.03 668.35,439.60 665.73,439.51 C662.34,439.38 660.40,438.73 659.01,437.24 C657.94,436.10 656.11,434.85 654.95,434.48 C653.34,433.97 652.97,433.26 653.41,431.52 C653.76,430.11 653.41,428.75 652.49,427.99 C651.67,427.31 651.00,425.80 651.01,424.63 C651.03,421.75 653.63,413.22 655.66,409.38 C658.17,404.65 656.99,403.00 651.09,403.00 C648.36,403.00 645.84,402.55 645.50,402.00 C645.16,401.45 642.59,401.00 639.80,401.00 C632.89,401.00 620.93,397.34 619.02,394.64 C616.69,391.36 614.81,385.89 614.62,381.87 C614.53,379.88 613.98,377.63 613.41,376.87 C612.83,376.12 612.28,374.24 612.19,372.70 C612.09,371.16 611.56,369.05 611.01,368.01 C610.45,366.98 610.00,360.98 610.00,354.69 C610.00,345.74 610.33,342.97 611.50,342.00 C612.33,341.32 613.00,339.93 613.00,338.92 C613.00,337.92 613.54,335.91 614.19,334.47 C615.12,332.44 615.12,331.42 614.19,329.94 C612.44,327.13 612.70,326.23 615.75,324.57 C617.26,323.75 618.15,323.06 617.73,323.04 C616.10,322.96 621.20,314.87 623.41,314.03 C624.70,313.54 626.03,312.02 626.38,310.64 C626.72,309.26 628.01,307.82 629.25,307.43 C630.49,307.05 631.75,306.34 632.07,305.85 C632.38,305.37 635.30,304.04 638.57,302.90 C641.83,301.76 645.86,299.99 647.52,298.97 C649.18,297.95 651.90,297.16 653.56,297.21 C657.37,297.31 667.00,294.89 667.00,293.82 C667.00,292.29 689.10,292.33 698.00,293.88 C701.58,294.50 706.68,295.21 709.34,295.45 C712.01,295.70 715.97,296.82 718.14,297.96 C720.65,299.26 722.99,299.79 724.55,299.40 C726.34,298.95 727.00,299.19 727.00,300.28 C727.00,301.89 729.03,303.00 731.95,303.00 C732.93,303.00 735.25,304.34 737.11,305.98 C739.33,307.94 741.59,308.97 743.67,308.98 C748.08,309.01 750.00,309.92 750.00,311.98 C750.00,314.49 752.04,315.85 755.27,315.48 C758.09,315.17 762.53,318.07 766.27,322.68 C767.24,323.88 769.49,325.34 771.27,325.93 C773.08,326.53 777.97,330.52 782.39,335.00 C786.72,339.40 790.89,343.00 791.66,343.00 C792.42,343.00 793.56,344.12 794.18,345.50 C794.81,346.88 795.64,348.00 796.04,348.00 C796.43,348.00 797.30,349.32 797.97,350.93 C798.73,352.76 800.55,354.43 802.84,355.41 C807.94,357.57 812.71,361.99 813.55,365.33 C813.96,366.98 815.24,368.52 816.64,369.05 C821.27,370.81 830.00,377.73 830.00,379.63 C830.00,380.33 831.58,382.10 833.50,383.57 C835.42,385.04 837.00,386.89 837.00,387.68 C837.00,388.47 837.38,388.88 837.85,388.59 C839.04,387.86 842.41,391.83 843.98,395.81 C844.92,398.18 846.68,399.82 850.23,401.61 C854.39,403.73 855.54,404.96 857.57,409.56 C858.89,412.55 860.35,415.00 860.81,415.00 C862.72,415.00 870.00,421.58 870.00,423.31 C870.00,424.34 870.85,425.41 871.89,425.68 C872.93,425.95 874.60,427.69 875.60,429.55 C876.59,431.40 879.38,434.57 881.79,436.58 C885.74,439.88 886.12,440.57 885.57,443.49 C885.00,446.52 885.12,446.70 887.46,446.25 C889.45,445.87 890.16,446.30 890.93,448.32 C891.46,449.72 893.24,451.86 894.87,453.07 C896.51,454.28 898.12,456.33 898.44,457.63 C898.77,458.93 899.47,460.00 900.01,460.00 C900.54,460.00 901.66,461.64 902.50,463.64 C903.33,465.65 905.14,468.33 906.51,469.60 C907.88,470.87 909.00,472.57 909.00,473.38 C909.00,475.48 912.00,478.21 913.63,477.59 C914.48,477.26 915.00,477.75 915.00,478.86 C915.00,479.84 916.12,481.71 917.50,483.00 C918.88,484.29 920.00,486.37 920.00,487.62 C920.00,488.87 921.14,491.12 922.53,492.62 C926.00,496.37 928.89,501.22 929.32,504.01 C929.52,505.32 930.46,506.45 931.49,506.60 C933.52,506.90 934.96,508.73 934.98,511.05 C934.99,511.90 935.43,513.03 935.96,513.56 C937.69,515.29 945.00,531.03 945.00,533.03 C945.00,534.11 945.99,535.99 947.21,537.21 C948.42,538.42 949.50,540.56 949.62,541.96 C950.09,547.93 951.10,550.63 953.61,552.65 C956.11,554.66 960.97,563.17 960.99,565.58 C961.00,566.17 962.12,567.71 963.50,569.00 C964.88,570.29 966.00,572.02 966.00,572.85 C966.00,573.67 966.59,575.05 967.32,575.92 C969.61,578.67 976.00,590.09 976.00,591.44 C976.00,593.02 980.02,603.13 981.17,604.45 C981.63,604.97 982.00,606.59 982.00,608.05 C982.00,609.51 982.49,612.10 983.08,613.81 C983.95,616.31 983.86,617.37 982.58,619.18 C981.71,620.43 981.00,622.16 981.00,623.03 C981.00,625.16 974.63,632.00 972.65,632.00 C971.78,632.00 970.59,632.90 970.00,634.00 C969.41,635.10 968.07,636.00 967.02,636.00 C965.97,636.00 964.46,636.94 963.65,638.08 C962.85,639.23 959.69,641.41 956.63,642.94 C953.57,644.46 950.33,646.31 949.43,647.06 C948.53,647.80 946.55,648.31 945.02,648.20 C943.09,648.05 942.09,648.53 941.77,649.74 C941.35,651.33 939.76,651.98 929.75,654.67 C928.79,654.92 928.00,656.02 928.00,657.09 C928.00,658.36 926.37,660.01 923.38,661.77 C916.24,665.98 907.67,672.73 905.87,675.57 C904.26,678.11 902.32,679.39 892.25,684.55 C889.36,686.02 887.00,687.63 887.00,688.12 C887.00,688.60 886.38,689.00 885.62,689.00 C884.86,689.00 883.68,689.67 883.00,690.50 C882.32,691.33 880.91,692.00 879.88,692.00 C878.85,692.00 876.32,693.49 874.25,695.32 C868.24,700.63 864.37,703.00 861.71,703.00 C860.17,703.00 858.61,703.95 857.59,705.50 C856.59,707.03 855.01,708.00 853.54,708.00 C852.21,708.00 850.81,708.50 850.44,709.10 C850.06,709.71 848.35,710.84 846.63,711.62 C844.91,712.39 842.83,713.41 842.00,713.87 C836.79,716.80 833.95,718.00 832.23,718.00 C831.15,718.00 829.20,718.83 827.88,719.85 C826.57,720.88 823.33,721.95 820.69,722.24 C818.04,722.53 814.89,723.62 813.69,724.67 C809.97,727.90 803.37,731.00 800.22,731.00 C798.47,731.00 796.97,731.63 796.64,732.50 C796.24,733.53 794.64,734.00 791.53,734.00 C788.36,734.00 787.00,734.41 787.00,735.37 C787.00,736.20 785.43,737.00 783.07,737.37 C780.91,737.72 778.47,738.68 777.64,739.50 C776.68,740.46 774.21,741.00 770.76,741.00 C767.58,741.00 764.59,741.60 763.44,742.47 C762.37,743.28 760.05,743.95 758.29,743.97 C755.07,744.00 744.54,747.45 742.33,749.19 C741.68,749.70 739.60,749.83 737.70,749.47 C735.38,749.04 733.22,749.35 731.14,750.43 C729.05,751.51 726.80,751.83 724.22,751.42 C721.37,750.96 720.06,751.22 719.05,752.44 C717.97,753.75 716.59,753.94 712.06,753.43 C707.55,752.92 706.15,753.11 705.09,754.39 C703.51,756.30 701.76,756.40 697.43,754.84 C694.66,753.84 693.64,753.99 689.86,755.97 C685.93,758.03 684.56,758.20 676.00,757.71 C670.78,757.41 663.35,757.54 659.50,758.01 C654.70,758.60 659.74,758.75 675.50,758.49 C676.84,758.47 678.17,758.44 679.48,758.41 C665.87,758.82 652.04,758.72 644.00,757.96 ZM 737.28 707.46 C755.88,704.20 775.62,695.90 795.00,683.19 C800.65,679.49 807.63,674.22 813.83,669.15 C808.39,673.68 802.60,678.20 798.50,680.96 C786.92,688.78 775.47,695.01 764.18,699.62 C754.70,703.49 753.93,703.98 757.32,703.99 C759.87,704.00 763.69,702.66 768.74,700.00 C772.92,697.80 776.86,696.00 777.51,696.00 C778.16,696.00 779.50,695.10 780.50,694.00 C781.51,692.88 783.58,692.00 785.19,692.00 C786.82,692.00 788.31,691.35 788.64,690.50 C788.95,689.67 790.03,689.00 791.02,689.00 C792.02,689.00 795.01,686.97 797.67,684.48 C800.38,681.94 804.18,679.50 806.33,678.92 C808.88,678.23 809.99,677.43 809.65,676.53 C808.96,674.74 812.11,672.00 814.86,672.00 C816.07,672.00 817.34,671.21 817.68,670.25 C818.02,669.29 819.47,667.32 820.90,665.88 C832.09,654.58 832.40,654.10 832.83,647.30 C833.14,642.39 832.81,640.06 831.41,637.47 C829.00,632.99 825.50,631.67 817.35,632.19 C811.75,632.55 810.42,632.99 809.09,634.95 C806.51,638.73 798.96,645.84 795.50,647.74 C788.46,651.60 783.09,655.61 782.09,657.75 C781.52,658.99 780.41,660.00 779.64,660.00 C778.87,660.00 777.68,660.67 777.00,661.50 C776.32,662.33 774.75,663.00 773.53,663.00 C772.30,663.00 769.88,664.35 768.16,666.00 C766.43,667.65 764.40,669.00 763.66,669.00 C762.91,669.00 761.07,670.13 759.58,671.52 C758.08,672.90 756.44,673.77 755.93,673.46 C755.42,673.14 753.77,673.54 752.25,674.35 C750.74,675.15 746.80,676.35 743.50,677.02 C736.90,678.34 736.61,678.43 733.00,680.52 C729.62,682.48 708.29,682.57 703.68,680.64 C701.90,679.89 698.92,679.50 697.08,679.77 C694.65,680.13 693.48,679.82 692.81,678.63 C692.22,677.56 690.57,677.00 688.06,677.00 C685.56,677.00 684.01,676.47 683.64,675.50 C683.31,674.64 681.81,674.00 680.11,674.00 C678.42,674.00 675.88,672.93 674.18,671.50 C672.55,670.12 670.50,669.00 669.64,669.00 C668.78,669.00 666.72,667.76 665.07,666.25 C660.37,661.94 656.70,659.34 654.22,658.56 C652.24,657.94 648.94,655.39 645.50,651.82 C644.95,651.24 641.84,648.07 638.58,644.77 L 632.67 638.76 L 624.71 639.22 C618.24,639.60 616.55,640.04 615.65,641.59 C613.79,644.79 612.30,649.65 611.63,654.71 C611.06,659.05 611.21,659.62 613.25,660.51 C614.49,661.06 615.50,662.36 615.50,663.42 C615.51,664.47 616.18,665.54 617.00,665.80 C617.83,666.05 619.95,667.66 621.72,669.38 C623.49,671.10 626.19,673.51 627.72,674.75 C636.15,681.57 638.00,683.33 638.00,684.53 C638.00,685.25 639.60,686.37 641.55,687.02 C643.50,687.66 645.64,689.05 646.29,690.09 C646.95,691.14 648.58,692.00 649.93,692.00 C651.27,692.00 653.40,692.96 654.65,694.14 C655.90,695.32 657.78,696.78 658.83,697.39 C659.88,698.00 661.87,699.31 663.26,700.30 C664.66,701.29 667.08,702.31 668.65,702.57 C670.22,702.84 673.65,703.96 676.28,705.07 C678.91,706.18 681.50,706.81 682.04,706.48 C682.58,706.14 683.74,706.60 684.62,707.48 C685.68,708.54 687.82,709.05 690.86,708.98 C693.41,708.92 698.20,709.28 701.50,709.78 C711.40,711.29 744.21,709.77 749.49,707.57 C753.40,705.94 754.43,703.35 750.75,704.42 C745.12,706.07 740.93,707.06 736.11,707.65 ZM 348.00 610.41 C343.88,610.54 337.58,610.91 334.00,611.24 C330.42,611.57 325.70,611.45 323.50,610.97 C314.89,609.12 306.43,606.80 305.00,605.92 C302.45,604.35 298.70,602.91 294.00,601.71 C289.91,600.66 282.98,596.44 278.92,592.53 C278.04,591.69 277.00,591.00 276.60,591.00 C276.19,591.00 273.72,589.20 271.12,587.00 C268.51,584.80 265.60,583.00 264.65,583.00 C263.71,583.00 262.70,582.38 262.41,581.63 C261.68,579.72 253.16,571.06 248.71,567.70 C244.74,564.70 244.12,562.62 246.45,560.08 C249.17,557.13 251.79,554.51 254.41,552.14 C256.53,550.21 257.30,550.00 258.50,551.00 C259.31,551.67 259.73,552.63 259.43,553.11 C259.13,553.60 259.29,554.00 259.78,554.00 C260.27,554.00 261.20,555.13 261.83,556.52 C262.46,557.91 264.07,559.46 265.41,559.97 C266.77,560.48 267.99,561.87 268.17,563.09 C268.35,564.30 269.40,565.79 270.50,566.40 C271.59,567.00 273.97,568.74 275.78,570.25 C277.59,571.76 279.66,573.00 280.38,573.00 C281.10,573.00 282.49,573.89 283.48,574.98 C284.46,576.06 285.62,576.74 286.04,576.47 C287.41,575.63 289.79,577.08 290.31,579.07 C290.59,580.15 291.68,581.00 292.78,581.00 C293.87,581.00 295.32,581.67 296.00,582.50 C296.68,583.33 298.54,584.00 300.12,584.00 C301.96,584.00 303.00,584.52 303.00,585.44 C303.00,587.27 303.85,587.77 308.08,588.49 C309.96,588.81 312.97,589.54 314.76,590.11 C316.55,590.69 318.58,590.96 319.26,590.72 C319.94,590.48 322.08,590.88 324.00,591.63 C327.02,592.80 341.14,593.00 356.18,592.10 C357.10,592.05 358.55,591.30 359.41,590.45 C360.26,589.60 362.50,588.75 364.39,588.57 C366.28,588.38 368.87,587.51 370.14,586.62 C373.35,584.37 376.00,584.54 376.00,587.00 C376.00,588.31 376.67,589.00 377.94,589.00 C380.99,589.00 381.39,587.10 378.56,586.02 C377.15,585.49 376.00,584.57 376.00,583.99 C376.00,582.89 376.71,582.56 381.26,581.56 C382.78,581.23 385.22,579.62 386.68,577.98 C388.14,576.34 390.17,575.00 391.19,575.00 C392.25,575.00 393.46,573.93 394.00,572.50 C394.52,571.12 395.34,570.00 395.82,570.00 C396.30,570.00 397.73,569.10 399.00,568.00 C400.27,566.90 401.91,566.00 402.65,566.00 C403.39,566.00 404.01,565.44 404.02,564.75 C404.02,564.06 406.72,560.70 410.02,557.28 C413.31,553.86 416.00,550.48 416.00,549.78 C416.00,549.08 417.01,547.26 418.25,545.75 C419.49,544.23 421.60,541.64 422.95,540.00 C425.90,536.40 430.71,535.92 433.45,538.94 C434.42,540.01 436.17,541.03 437.34,541.19 C440.24,541.61 440.68,544.84 438.09,546.65 C436.66,547.65 436.00,549.20 436.00,551.56 C436.00,554.32 435.61,555.00 434.02,555.00 C432.64,555.00 431.25,556.54 429.48,560.05 C428.07,562.82 426.28,565.34 425.50,565.64 C424.72,565.94 422.92,568.17 421.50,570.59 C420.08,573.02 418.58,575.00 418.17,575.00 C417.76,575.00 415.75,577.25 413.69,580.00 C411.36,583.13 409.20,585.00 407.94,585.00 C406.82,585.00 404.69,586.23 403.20,587.74 C400.16,590.82 396.28,593.30 390.75,595.68 C388.69,596.57 387.00,597.92 387.00,598.68 C387.00,600.39 382.92,602.00 378.56,602.00 C376.74,602.00 374.69,602.67 374.02,603.48 C370.61,607.59 361.60,609.99 348.00,610.41 ZM 418.93 454.88 C414.70,456.21 410.33,456.34 409.59,455.15 C409.31,454.69 407.66,454.27 405.94,454.22 C404.21,454.17 402.02,453.42 401.07,452.56 C400.12,451.70 398.80,451.00 398.13,451.00 C393.39,451.00 384.00,442.30 384.00,437.90 C384.00,437.00 383.10,435.13 382.00,433.73 C380.90,432.33 380.00,429.88 380.00,428.29 C380.00,426.70 379.50,424.90 378.89,424.29 C377.21,422.61 379.37,409.23 381.59,407.50 C382.30,406.95 383.02,405.15 383.19,403.50 C383.42,401.29 384.08,400.42 385.70,400.19 C386.91,400.01 388.18,399.02 388.51,397.98 C389.33,395.38 394.73,391.00 397.10,391.00 C398.22,391.00 399.54,389.90 400.23,388.40 C401.29,386.07 401.83,385.85 405.40,386.33 C408.41,386.73 409.69,386.45 410.64,385.18 C411.81,383.62 412.20,383.66 415.90,385.75 C418.10,386.99 421.52,388.00 423.51,388.00 C428.40,388.00 430.45,389.24 437.69,396.60 C443.85,402.86 444.53,404.19 448.11,416.76 C449.14,420.35 449.05,421.91 447.60,426.76 C446.65,429.92 445.60,433.62 445.28,435.00 C444.43,438.53 439.01,445.00 436.89,445.00 C435.91,445.00 434.52,446.22 433.80,447.71 C432.97,449.44 431.42,450.64 429.50,451.04 C427.85,451.38 425.60,452.13 424.50,452.71 C423.40,453.28 420.89,454.26 418.93,454.88 ZM 255.85 469.90 C251.79,471.32 244.31,471.32 243.44,469.90 C243.06,469.29 241.53,469.04 239.98,469.35 C237.91,469.77 236.52,469.28 234.55,467.46 C233.09,466.10 231.09,465.00 230.10,465.00 C226.99,465.00 218.38,455.85 217.61,451.73 C217.23,449.71 216.11,447.48 215.11,446.78 C212.46,444.91 212.53,427.44 215.20,424.56 C216.19,423.50 217.00,421.37 217.00,419.85 C217.00,417.16 219.99,414.32 221.36,415.70 C221.71,416.04 222.49,414.90 223.09,413.16 C223.84,411.03 224.85,410.00 226.20,410.00 C227.56,410.00 228.03,409.52 227.65,408.53 C226.91,406.61 229.63,403.92 231.57,404.66 C232.40,404.98 233.92,404.48 234.96,403.54 C235.99,402.60 237.94,401.98 239.28,402.16 C240.62,402.33 242.44,401.88 243.33,401.14 C245.06,399.71 252.51,400.40 253.55,402.09 C253.86,402.59 255.64,403.00 257.49,403.00 C262.45,403.00 265.91,404.63 266.99,407.48 C267.52,408.88 268.75,410.00 269.74,410.00 C270.72,410.00 271.97,411.01 272.51,412.25 C273.06,413.49 274.53,414.95 275.78,415.50 C277.26,416.15 278.41,417.89 279.06,420.50 C279.62,422.70 280.77,426.42 281.63,428.77 C283.78,434.68 282.70,441.68 278.17,451.22 C275.46,456.94 273.78,459.25 271.72,460.11 C270.20,460.74 268.03,462.55 266.91,464.13 C265.45,466.17 264.02,467.00 261.93,467.00 C260.32,467.00 259.00,467.41 259.00,467.90 C259.00,468.40 257.58,469.30 255.85,469.90 ZM 325.24 686.33 C331.38,687.20 342.46,686.27 345.50,684.63 C348.37,683.08 347.81,683.01 332.50,683.01 C318.02,683.01 316.76,683.15 319.24,684.44 C320.75,685.23 323.45,686.08 325.24,686.33 ZM 443.00 424.06 C443.00,425.13 443.45,426.00 444.00,426.00 C444.55,426.00 445.00,424.85 445.00,423.44 C445.00,421.99 444.57,421.15 444.00,421.50 C443.45,421.84 443.00,422.99 443.00,424.06 ZM 289.87 678.86 C285.39,677.99 280.88,677.01 276.89,676.01 C251.62,669.68 228.12,659.30 206.81,645.13 C208.56,646.28 210.32,647.40 212.09,648.50 C236.01,663.30 261.73,673.35 289.87,678.86 ZM 433.69 547.36 C434.82,548.49 436.00,548.05 436.00,546.50 C436.00,545.67 435.58,545.00 435.06,545.00 C433.80,545.00 432.89,546.56 433.69,547.36 ZM 446.64 248.31 C447.44,249.11 449.00,248.20 449.00,246.94 C449.00,246.42 448.33,246.00 447.50,246.00 C445.95,246.00 445.51,247.18 446.64,248.31 ZM 93.48 375.00 C88.90,388.93 85.52,403.35 83.36,418.20 C84.08,412.56 84.99,407.07 86.08,401.79 C87.85,393.19 90.37,384.14 93.48,375.00 ZM 155.08 598.12 C153.17,595.80 151.30,593.44 149.46,591.03 C141.52,580.66 134.28,568.75 128.03,555.98 C135.52,570.99 144.59,585.13 155.08,598.12 ZM 400.48 672.73 C417.50,667.42 434.06,660.17 449.21,651.34 C437.50,658.26 425.20,664.12 412.50,668.77 C408.83,670.12 404.75,671.45 400.48,672.73 ZM 569.53 541.14 C574.83,526.63 578.94,511.15 582.11,494.00 C582.32,492.84 582.52,491.76 582.69,490.72 C581.57,498.60 579.77,506.61 576.89,518.00 C575.03,525.34 572.52,533.20 569.53,541.14 ZM 398.50 445.00 C398.84,445.55 399.79,446.00 400.62,446.00 C401.44,446.00 401.84,445.55 401.50,445.00 C401.16,444.45 400.21,444.00 399.38,444.00 C398.56,444.00 398.16,444.45 398.50,445.00 ZM 703.66 708.35 C696.76,708.12 693.40,707.47 686.50,705.74 C685.20,705.41 683.89,705.05 682.56,704.66 C689.39,706.41 696.53,707.65 703.66,708.35 ZM 515.47 303.95 C515.84,304.55 516.60,304.75 517.16,304.40 C517.84,303.98 517.82,303.42 517.10,302.70 C515.82,301.42 514.52,302.41 515.47,303.95 ZM 265.36 210.92 C250.59,215.03 236.25,220.70 220.50,228.44 C220.16,228.61 219.82,228.78 219.49,228.95 C228.41,224.38 237.45,220.34 246.14,217.08 C252.32,214.76 258.75,212.71 265.36,210.92 ZM 601.51 748.35 C592.56,745.06 584.57,741.17 578.34,736.92 C573.30,733.48 568.70,729.59 564.57,725.27 C572.01,732.92 580.97,739.18 591.53,744.13 C594.78,745.65 598.11,747.06 601.51,748.35 ZM 105.00 517.44 C105.00,518.30 105.45,519.00 106.00,519.00 C106.55,519.00 107.00,518.58 107.00,518.06 C107.00,517.54 106.55,516.84 106.00,516.50 C105.45,516.16 105.00,516.58 105.00,517.44 ZM 81.14 456.33 C81.49,474.33 83.41,493.32 86.62,507.50 C83.13,492.09 81.31,474.32 81.14,456.33 ZM 192.72 244.47 C181.71,251.82 171.26,260.08 161.48,269.17 C166.35,264.54 171.22,260.27 175.90,256.55 C181.05,252.46 186.72,248.40 192.72,244.47 ZM 556.67 504.55 C552.66,522.81 546.29,540.32 537.48,557.40 C540.14,552.17 542.60,546.83 544.87,541.38 C549.99,529.05 553.90,516.91 556.67,504.55 ZM 361.15 203.46 C350.74,202.52 337.22,202.06 325.60,202.22 C337.50,201.86 349.44,202.27 361.15,203.46 ZM 653.60 691.53 C642.28,684.73 631.40,676.21 622.25,666.77 C630.74,675.54 642.28,684.50 653.60,691.53 ZM 821.59 725.65 C857.80,710.57 891.02,691.14 917.35,669.32 C890.64,691.46 857.75,710.64 821.59,725.65 ZM 584.38 463.86 C584.39,461.24 584.40,458.31 584.39,455.00 C584.38,440.00 584.02,429.88 582.93,420.69 C584.19,430.28 584.44,439.57 584.43,455.50 C584.43,458.49 584.41,461.26 584.38,463.86 ZM 565.66 357.02 C556.19,334.61 543.62,313.49 528.80,295.19 C543.91,313.84 556.45,334.97 565.66,357.02 ZM 430.10 221.39 C451.96,230.74 473.23,243.30 491.50,257.95 C473.46,243.49 451.93,230.79 430.10,221.39 ZM 129.72 304.79 C124.87,311.37 120.37,318.14 116.22,325.10 C118.22,321.68 120.28,318.37 122.38,315.18 C124.61,311.79 127.08,308.31 129.72,304.79 ZM 696.92 757.57 C702.23,757.18 707.41,756.67 712.61,756.00 C712.40,756.03 712.20,756.06 712.00,756.09 C708.10,756.67 702.84,757.17 696.92,757.57 ZM 757.04 747.03 C761.17,745.96 765.48,744.79 770.00,743.53 C773.03,742.68 776.06,741.80 779.08,740.89 C771.80,743.11 764.45,745.16 757.04,747.03 ZM 488.19 622.38 C496.52,614.70 504.24,606.47 511.30,597.75 C504.23,606.51 496.49,614.75 488.19,622.38 ZM 374.83 205.24 C373.47,205.04 371.97,204.82 370.43,204.58 C371.91,204.79 373.37,205.01 374.83,205.24 ZM 303.68 681.17 C301.94,680.93 300.06,680.65 298.11,680.33 C299.96,680.63 301.81,680.91 303.68,681.17 Z" fill="rgb(56,182,254)"/>
<path d="M 659.50 758.01 C663.35,757.54 670.78,757.41 676.00,757.71 C684.56,758.20 685.93,758.03 689.86,755.97 C693.64,753.99 694.66,753.84 697.43,754.84 C701.76,756.40 703.51,756.30 705.09,754.39 C706.15,753.11 707.55,752.92 712.06,753.43 C716.59,753.94 717.97,753.75 719.05,752.44 C720.06,751.22 721.37,750.96 724.22,751.42 C726.80,751.83 729.05,751.51 731.14,750.43 C733.22,749.35 735.38,749.04 737.70,749.47 C739.60,749.83 741.68,749.70 742.33,749.19 C744.54,747.45 755.07,744.00 758.29,743.97 C760.05,743.95 762.37,743.28 763.44,742.47 C764.59,741.60 767.58,741.00 770.76,741.00 C774.21,741.00 776.68,740.46 777.64,739.50 C778.47,738.68 780.91,737.72 783.07,737.37 C785.43,737.00 787.00,736.20 787.00,735.37 C787.00,734.41 788.36,734.00 791.53,734.00 C794.64,734.00 796.24,733.53 796.64,732.50 C796.97,731.63 798.47,731.00 800.22,731.00 C803.37,731.00 809.97,727.90 813.69,724.67 C814.89,723.62 818.04,722.53 820.69,722.24 C823.33,721.95 826.57,720.88 827.88,719.85 C829.20,718.83 831.15,718.00 832.23,718.00 C833.95,718.00 836.79,716.80 842.00,713.87 C842.83,713.41 844.91,712.39 846.63,711.62 C848.35,710.84 850.06,709.71 850.44,709.10 C850.81,708.50 852.21,708.00 853.54,708.00 C855.01,708.00 856.59,707.03 857.59,705.50 C858.61,703.95 860.17,703.00 861.71,703.00 C864.37,703.00 868.24,700.63 874.25,695.32 C876.32,693.49 878.85,692.00 879.88,692.00 C880.91,692.00 882.32,691.33 883.00,690.50 C883.68,689.67 884.86,689.00 885.62,689.00 C886.38,689.00 887.00,688.60 887.00,688.12 C887.00,687.63 889.36,686.02 892.25,684.55 C902.32,679.39 904.26,678.11 905.87,675.57 C907.67,672.73 916.24,665.98 923.38,661.77 C926.37,660.01 928.00,658.36 928.00,657.09 C928.00,656.02 928.79,654.92 929.75,654.67 C939.76,651.98 941.35,651.33 941.77,649.74 C942.09,648.53 943.09,648.05 945.02,648.20 C946.55,648.31 948.53,647.80 949.43,647.06 C950.33,646.31 953.57,644.46 956.63,642.94 C959.69,641.41 962.85,639.23 963.65,638.08 C964.46,636.94 965.97,636.00 967.02,636.00 C968.07,636.00 969.41,635.10 970.00,634.00 C970.59,632.90 971.78,632.00 972.65,632.00 C974.63,632.00 981.00,625.16 981.00,623.03 C981.00,622.16 981.71,620.43 982.58,619.18 C983.86,617.37 983.95,616.31 983.08,613.81 C982.49,612.10 982.00,609.51 982.00,608.05 C982.00,606.59 981.63,604.97 981.17,604.45 C980.02,603.13 976.00,593.02 976.00,591.44 C976.00,590.09 969.61,578.67 967.32,575.92 C966.59,575.05 966.00,573.67 966.00,572.85 C966.00,572.02 964.88,570.29 963.50,569.00 C962.12,567.71 961.00,566.17 960.99,565.58 C960.97,563.17 956.11,554.66 953.61,552.65 C951.10,550.63 950.09,547.93 949.62,541.96 C949.50,540.56 948.42,538.42 947.21,537.21 C945.99,535.99 945.00,534.11 945.00,533.03 C945.00,531.03 937.69,515.29 935.96,513.56 C935.43,513.03 934.99,511.90 934.98,511.05 C934.96,508.73 933.52,506.90 931.49,506.60 C930.46,506.45 929.52,505.32 929.32,504.01 C928.89,501.22 926.00,496.37 922.53,492.62 C921.14,491.12 920.00,488.87 920.00,487.62 C920.00,486.37 918.88,484.29 917.50,483.00 C916.12,481.71 915.00,479.84 915.00,478.86 C915.00,477.75 914.48,477.26 913.63,477.59 C912.00,478.21 909.00,475.48 909.00,473.38 C909.00,472.57 907.88,470.87 906.51,469.60 C905.14,468.33 903.33,465.65 902.50,463.64 C901.66,461.64 900.54,460.00 900.01,460.00 C899.47,460.00 898.77,458.93 898.44,457.63 C898.12,456.33 896.51,454.28 894.87,453.07 C893.24,451.86 891.46,449.72 890.93,448.32 C890.16,446.30 889.45,445.87 887.46,446.25 C885.12,446.70 885.00,446.52 885.57,443.49 C886.12,440.57 885.74,439.88 881.79,436.58 C879.38,434.57 876.59,431.40 875.60,429.55 C874.60,427.69 872.93,425.95 871.89,425.68 C870.85,425.41 870.00,424.34 870.00,423.31 C870.00,421.58 862.72,415.00 860.81,415.00 C860.35,415.00 858.89,412.55 857.57,409.56 C855.54,404.96 854.39,403.73 850.23,401.61 C846.68,399.82 844.92,398.18 843.98,395.81 C842.41,391.83 839.04,387.86 837.85,388.59 C837.38,388.88 837.00,388.47 837.00,387.68 C837.00,386.89 835.42,385.04 833.50,383.57 C831.58,382.10 830.00,380.33 830.00,379.63 C830.00,377.73 821.27,370.81 816.64,369.05 C815.24,368.52 813.96,366.98 813.55,365.33 C812.71,361.99 807.94,357.57 802.84,355.41 C800.55,354.43 798.73,352.76 797.97,350.93 C797.30,349.32 796.43,348.00 796.04,348.00 C795.64,348.00 794.81,346.88 794.18,345.50 C793.56,344.12 792.42,343.00 791.66,343.00 C790.89,343.00 786.72,339.40 782.39,335.00 C777.97,330.52 773.08,326.53 771.27,325.93 C769.49,325.34 767.24,323.88 766.27,322.68 C762.53,318.07 758.09,315.17 755.27,315.48 C752.04,315.85 750.00,314.49 750.00,311.98 C750.00,309.92 748.08,309.01 743.67,308.98 C741.59,308.97 739.33,307.94 737.11,305.98 C735.25,304.34 732.93,303.00 731.95,303.00 C729.03,303.00 727.00,301.89 727.00,300.28 C727.00,299.19 726.34,298.95 724.55,299.40 C722.99,299.79 720.65,299.26 718.14,297.96 C715.97,296.82 712.01,295.70 709.34,295.45 C706.68,295.21 701.58,294.50 698.00,293.88 C689.10,292.33 667.00,292.29 667.00,293.82 C667.00,294.89 657.37,297.31 653.56,297.21 C651.90,297.16 649.18,297.95 647.52,298.97 C645.86,299.99 641.83,301.76 638.57,302.90 C635.30,304.04 632.38,305.37 632.07,305.85 C631.75,306.34 630.49,307.05 629.25,307.43 C628.01,307.82 626.72,309.26 626.38,310.64 C626.03,312.02 624.70,313.54 623.41,314.03 C621.20,314.87 616.10,322.96 617.73,323.04 C618.15,323.06 617.26,323.75 615.75,324.57 C612.70,326.23 612.44,327.13 614.19,329.94 C615.12,331.42 615.12,332.44 614.19,334.47 C613.54,335.91 613.00,337.92 613.00,338.92 C613.00,339.93 612.33,341.32 611.50,342.00 C610.33,342.97 610.00,345.74 610.00,354.69 C610.00,360.98 610.45,366.98 611.01,368.01 C611.56,369.05 612.09,371.16 612.19,372.70 C612.28,374.24 612.83,376.12 613.41,376.87 C613.98,377.63 614.53,379.88 614.62,381.87 C614.81,385.89 616.69,391.36 619.02,394.64 C620.93,397.34 632.89,401.00 639.80,401.00 C642.59,401.00 645.16,401.45 645.50,402.00 C645.84,402.55 648.36,403.00 651.09,403.00 C656.99,403.00 658.17,404.65 655.66,409.38 C653.63,413.22 651.03,421.75 651.01,424.63 C651.00,425.80 651.67,427.31 652.49,427.99 C653.41,428.75 653.76,430.11 653.41,431.52 C652.97,433.26 653.34,433.97 654.95,434.48 C656.11,434.85 657.94,436.10 659.01,437.24 C660.40,438.73 662.34,439.38 665.73,439.51 C668.35,439.60 674.55,440.03 679.50,440.46 C686.46,441.07 689.65,440.90 693.58,439.73 C696.37,438.89 699.81,438.43 701.23,438.70 C702.99,439.04 704.47,438.53 705.90,437.10 C707.06,435.94 709.01,435.00 710.25,435.00 C711.49,434.99 714.17,433.53 716.21,431.75 C718.25,429.96 721.13,427.60 722.60,426.50 C724.08,425.40 726.28,423.49 727.51,422.25 C728.73,421.01 730.45,420.00 731.33,420.00 C732.21,420.00 733.41,419.10 734.00,418.00 C734.59,416.90 735.74,416.00 736.56,416.00 C737.38,416.00 738.45,414.95 738.94,413.66 C740.27,410.16 744.88,411.16 747.78,415.58 C749.01,417.46 750.46,419.00 751.01,419.00 C751.55,419.00 752.00,420.06 752.00,421.37 C752.00,422.67 752.90,424.87 754.00,426.27 C755.10,427.67 756.00,429.46 756.00,430.25 C756.00,431.05 756.90,432.73 758.00,434.00 C759.10,435.27 760.00,436.87 760.00,437.55 C760.00,438.24 761.58,441.14 763.50,444.00 C765.42,446.86 767.00,449.55 767.00,449.98 C767.00,450.41 767.67,451.32 768.50,452.00 C769.33,452.68 770.00,454.13 770.00,455.22 C770.00,456.31 771.75,460.87 773.89,465.35 C779.22,476.50 781.00,480.80 781.00,482.56 C781.00,483.37 782.08,484.54 783.41,485.14 C785.25,485.98 785.92,487.21 786.25,490.37 C786.49,492.64 787.94,497.65 789.47,501.50 C791.00,505.35 793.02,511.34 793.96,514.82 C794.90,518.29 796.31,521.89 797.08,522.82 C797.86,523.74 798.36,525.48 798.19,526.67 C798.02,527.87 798.81,530.66 799.94,532.88 C802.48,537.86 802.54,540.20 800.17,542.35 C797.74,544.55 795.75,544.43 794.23,542.00 C793.55,540.90 792.42,540.00 791.73,540.00 C791.04,540.00 789.92,539.10 789.23,538.00 C788.55,536.90 786.93,536.00 785.65,536.00 C784.36,536.00 782.50,535.10 781.50,534.00 C780.50,532.90 778.73,532.00 777.56,532.00 C776.38,532.00 773.66,531.10 771.50,530.00 C769.34,528.90 766.84,528.00 765.94,528.00 C765.04,528.00 763.00,527.37 761.40,526.59 C759.81,525.81 755.58,524.88 752.00,524.52 C748.42,524.16 743.47,523.64 741.00,523.36 C732.08,522.35 710.94,521.81 709.24,522.55 C708.28,522.96 705.95,523.27 704.05,523.22 C702.15,523.18 699.84,523.55 698.91,524.05 C697.98,524.55 693.03,525.19 687.90,525.48 C682.78,525.77 678.14,526.46 677.59,527.01 C677.05,527.55 674.55,528.00 672.04,528.00 C669.45,528.00 665.92,528.83 663.90,529.91 C661.93,530.97 659.02,532.05 657.41,532.31 C652.77,533.09 648.62,534.95 647.00,536.98 C645.63,538.70 645.16,538.74 641.63,537.51 C638.14,536.29 637.39,536.35 633.95,538.14 C631.85,539.24 629.60,540.78 628.95,541.57 C628.29,542.35 626.97,543.00 626.00,543.00 C623.77,543.00 615.28,546.73 614.45,548.08 C614.10,548.65 611.49,550.22 608.66,551.58 C600.46,555.50 592.33,560.31 589.75,562.75 C588.44,563.99 586.95,565.00 586.45,565.00 C585.94,565.00 584.25,566.24 582.70,567.75 C581.14,569.26 578.66,571.67 577.19,573.10 C575.71,574.53 573.71,575.98 572.75,576.32 C571.79,576.66 571.00,577.55 571.00,578.31 C571.00,579.06 569.88,580.19 568.50,580.82 C566.64,581.67 566.00,582.73 566.00,584.98 C566.00,586.66 566.53,588.00 567.20,588.00 C568.11,588.00 568.10,588.30 567.16,589.24 C566.18,590.22 565.75,590.22 565.16,589.26 C563.98,587.34 558.02,591.97 558.42,594.50 C558.83,597.02 557.30,599.00 554.94,599.00 C553.07,599.00 552.60,600.00 551.56,606.14 C551.23,608.14 549.73,610.99 548.24,612.48 C545.19,615.54 542.00,623.10 542.00,627.29 C542.00,628.82 541.26,631.20 540.36,632.58 C538.97,634.69 538.91,635.47 539.99,637.47 C540.77,638.94 540.98,640.94 540.53,642.68 C538.86,649.12 538.83,655.99 540.46,660.25 C541.57,663.16 541.82,665.31 541.24,666.88 C540.36,669.25 541.98,679.58 543.63,682.16 C544.83,684.04 547.08,690.11 547.46,692.50 C547.64,693.60 548.56,696.86 549.51,699.75 C550.79,703.67 551.72,705.00 553.16,705.00 C554.53,705.00 555.89,706.70 557.86,710.87 C560.85,717.19 568.56,725.72 573.63,728.32 C575.40,729.23 577.04,731.02 577.39,732.43 C577.78,733.97 578.53,734.73 579.36,734.41 C580.10,734.13 581.43,735.01 582.31,736.36 C584.21,739.25 599.73,745.54 607.50,746.56 C610.82,746.99 613.77,748.21 616.27,750.17 C620.22,753.27 628.02,755.46 626.53,753.05 C625.97,752.15 626.29,751.95 627.62,752.36 C628.66,752.67 633.40,753.40 638.17,753.98 C642.94,754.56 648.11,755.74 649.67,756.60 C652.35,758.09 652.00,758.14 643.00,757.57 C626.08,756.50 607.65,751.68 591.53,744.13 C563.85,731.15 547.14,709.21 540.06,676.52 C533.43,645.93 538.00,619.91 554.34,595.18 C582.26,552.92 645.06,523.63 714.50,520.49 C731.39,519.72 751.94,521.72 766.00,525.50 C775.17,527.96 790.64,535.00 795.80,539.06 C797.18,540.14 798.50,540.84 798.73,540.60 C799.33,540.00 794.51,522.62 790.86,512.21 C786.04,498.51 775.59,474.07 766.43,455.15 C756.63,434.88 745.23,414.00 743.96,414.00 C743.48,414.00 740.63,415.99 737.64,418.43 C723.38,430.05 711.68,438.02 706.72,439.50 C685.14,445.95 655.87,443.04 651.29,434.00 C649.53,430.52 649.69,417.41 651.57,411.08 C652.43,408.18 652.97,405.63 652.76,405.43 C652.56,405.22 645.79,404.43 637.72,403.67 C629.02,402.85 622.40,401.75 621.47,400.97 C619.06,398.98 615.25,392.02 612.94,385.42 C605.96,365.45 606.41,339.70 614.03,323.21 C623.53,302.64 649.79,290.56 685.00,290.56 C705.30,290.56 720.57,294.10 740.46,303.41 C756.47,310.91 769.21,319.85 787.12,336.16 C841.43,385.61 876.99,423.56 904.64,461.59 C925.67,490.51 935.79,507.16 949.59,535.50 C955.21,547.05 963.00,562.12 966.91,568.99 C979.40,590.94 987.13,612.15 985.61,620.27 C984.03,628.67 969.70,639.81 946.00,651.08 C929.75,658.80 931.05,657.97 917.35,669.32 C878.89,701.20 825.72,727.97 770.00,743.53 C731.44,754.30 708.40,757.95 675.50,758.49 C659.74,758.75 654.70,758.60 659.50,758.01 ZM 701.50 709.78 C698.20,709.28 693.41,708.92 690.86,708.98 C687.82,709.05 685.68,708.54 684.62,707.48 C683.74,706.60 682.58,706.14 682.04,706.48 C681.50,706.81 678.91,706.18 676.28,705.07 C673.65,703.96 670.22,702.84 668.65,702.57 C667.08,702.31 664.66,701.29 663.26,700.30 C661.87,699.31 659.88,698.00 658.83,697.39 C657.78,696.78 655.90,695.32 654.65,694.14 C653.40,692.96 651.27,692.00 649.93,692.00 C648.58,692.00 646.95,691.14 646.29,690.09 C645.64,689.05 643.50,687.66 641.55,687.02 C639.60,686.37 638.00,685.25 638.00,684.53 C638.00,683.33 636.15,681.57 627.72,674.75 C626.19,673.51 623.49,671.10 621.72,669.38 C619.95,667.66 617.83,666.05 617.00,665.80 C616.18,665.54 615.51,664.47 615.50,663.42 C615.50,662.36 614.49,661.06 613.25,660.51 C611.21,659.62 611.06,659.05 611.63,654.71 C612.30,649.65 613.79,644.79 615.65,641.59 C616.55,640.04 618.24,639.60 624.71,639.22 L 632.67 638.76 L 638.58 644.77 C641.84,648.07 644.95,651.24 645.50,651.82 C648.94,655.39 652.24,657.94 654.22,658.56 C656.70,659.34 660.37,661.94 665.07,666.25 C666.72,667.76 668.78,669.00 669.64,669.00 C670.50,669.00 672.55,670.12 674.18,671.50 C675.88,672.93 678.42,674.00 680.11,674.00 C681.81,674.00 683.31,674.64 683.64,675.50 C684.01,676.47 685.56,677.00 688.06,677.00 C690.57,677.00 692.22,677.56 692.81,678.63 C693.48,679.82 694.65,680.13 697.08,679.77 C698.92,679.50 701.90,679.89 703.68,680.64 C708.29,682.57 729.62,682.48 733.00,680.52 C736.61,678.43 736.90,678.34 743.50,677.02 C746.80,676.35 750.74,675.15 752.25,674.35 C753.77,673.54 755.42,673.14 755.93,673.46 C756.44,673.77 758.08,672.90 759.58,671.52 C761.07,670.13 762.91,669.00 763.66,669.00 C764.40,669.00 766.43,667.65 768.16,666.00 C769.88,664.35 772.30,663.00 773.53,663.00 C774.75,663.00 776.32,662.33 777.00,661.50 C777.68,660.67 778.87,660.00 779.64,660.00 C780.41,660.00 781.52,658.99 782.09,657.75 C783.09,655.61 788.46,651.60 795.50,647.74 C798.96,645.84 806.51,638.73 809.09,634.95 C810.42,632.99 811.75,632.55 817.35,632.19 C825.50,631.67 829.00,632.99 831.41,637.47 C832.81,640.06 833.14,642.39 832.83,647.30 C832.40,654.10 832.09,654.58 820.90,665.88 C819.47,667.32 818.02,669.29 817.68,670.25 C817.34,671.21 816.07,672.00 814.86,672.00 C812.11,672.00 808.96,674.74 809.65,676.53 C809.99,677.43 808.88,678.23 806.33,678.92 C804.18,679.50 800.38,681.94 797.67,684.48 C795.01,686.97 792.02,689.00 791.02,689.00 C790.03,689.00 788.95,689.67 788.64,690.50 C788.31,691.35 786.82,692.00 785.19,692.00 C783.58,692.00 781.51,692.88 780.50,694.00 C779.50,695.10 778.16,696.00 777.51,696.00 C776.86,696.00 772.92,697.80 768.74,700.00 C763.69,702.66 759.87,704.00 757.32,703.99 C753.93,703.98 754.70,703.49 764.18,699.62 C775.47,695.01 786.92,688.78 798.50,680.96 C807.43,674.93 824.42,660.59 828.23,655.87 C836.42,645.71 830.09,632.83 817.60,634.24 C813.50,634.70 812.05,635.58 806.20,641.16 C784.27,662.09 759.18,676.21 733.50,682.07 C724.73,684.08 704.71,683.58 694.52,681.11 C677.00,676.86 658.97,666.15 640.87,649.26 C631.55,640.57 628.28,639.09 622.54,640.99 C617.07,642.79 614.00,647.18 614.00,653.20 C614.00,658.16 614.13,658.38 622.25,666.77 C640.24,685.35 664.95,700.34 686.50,705.74 C696.56,708.26 699.09,708.49 716.00,708.47 C733.66,708.45 739.12,707.81 750.75,704.42 C754.43,703.35 753.40,705.94 749.49,707.57 C744.21,709.77 711.40,711.29 701.50,709.78 ZM 309.32 704.93 C290.24,703.46 261.92,696.68 241.00,688.57 C228.72,683.81 205.95,672.00 194.50,664.44 C139.72,628.31 101.30,572.43 86.62,507.50 C81.45,484.66 79.61,449.34 82.36,425.79 C88.08,376.72 106.96,332.01 137.89,294.29 C160.69,266.47 188.92,243.97 220.50,228.44 C251.29,213.31 276.70,206.10 310.48,202.92 C325.75,201.49 355.03,202.24 369.50,204.44 C375.00,205.28 380.17,206.01 381.00,206.08 C383.56,206.28 377.70,207.79 373.95,207.90 C372.00,207.96 369.89,207.49 369.27,206.87 C368.62,206.22 364.98,205.78 360.61,205.83 C356.46,205.88 352.80,205.49 352.48,204.96 C351.66,203.65 312.31,203.68 311.50,205.00 C311.16,205.55 307.62,206.00 303.64,206.00 C299.66,206.00 295.96,206.44 295.42,206.98 C294.29,208.11 279.18,210.95 274.20,210.98 C272.39,210.99 269.52,211.72 267.82,212.59 C266.13,213.47 263.59,213.96 262.18,213.69 C260.77,213.42 258.63,213.85 257.43,214.64 C256.23,215.42 254.24,216.26 253.00,216.50 C251.76,216.74 249.70,217.62 248.41,218.47 C247.12,219.31 244.99,220.00 243.67,220.00 C242.35,220.00 240.16,220.87 238.81,221.94 C237.46,223.00 233.70,225.04 230.46,226.48 C227.22,227.91 223.88,229.70 223.03,230.45 C222.19,231.20 217.83,233.22 213.35,234.94 C208.87,236.66 204.59,238.98 203.85,240.08 C203.11,241.19 201.43,242.18 200.12,242.27 C198.50,242.39 197.43,243.33 196.77,245.22 C196.12,247.09 195.10,248.01 193.65,248.02 C190.76,248.04 189.41,249.04 188.54,251.85 C187.96,253.69 187.27,254.09 185.33,253.72 C183.41,253.36 182.65,253.78 181.95,255.62 C181.46,256.93 180.59,258.00 180.03,258.00 C179.47,258.00 177.32,259.51 175.25,261.35 C173.19,263.20 170.19,265.33 168.59,266.10 C166.99,266.87 165.19,268.39 164.59,269.49 C163.29,271.86 160.02,275.00 158.86,275.00 C158.40,275.00 156.84,276.80 155.38,279.00 C153.92,281.20 151.22,283.94 149.37,285.08 C147.51,286.23 146.00,287.59 146.00,288.12 C146.00,289.83 135.79,302.48 133.79,303.25 C132.26,303.83 131.97,304.60 132.45,306.79 C132.98,309.18 132.67,309.73 130.41,310.54 C128.65,311.18 127.36,312.68 126.60,315.00 C125.84,317.32 124.87,318.45 123.72,318.36 C122.63,318.27 122.00,318.94 122.00,320.19 C122.00,321.28 120.38,324.14 118.40,326.55 C116.39,329.01 113.95,333.69 112.86,337.20 C111.79,340.65 110.07,344.37 109.05,345.48 C108.03,346.59 105.86,350.48 104.22,354.11 C102.59,357.75 100.74,361.05 100.11,361.43 C99.48,361.82 99.23,362.56 99.55,363.08 C99.87,363.60 99.17,366.61 97.98,369.76 C96.80,372.92 95.63,377.17 95.38,379.20 C95.14,381.24 93.83,384.84 92.48,387.20 C90.92,389.94 90.02,393.08 90.01,395.85 C90.00,398.66 89.25,401.24 87.87,403.18 C86.08,405.70 85.84,407.02 86.39,411.62 C86.80,415.18 86.60,417.85 85.81,419.29 C84.42,421.82 84.22,424.96 83.72,452.50 C83.40,470.13 83.58,473.18 85.27,478.29 C87.14,483.95 87.02,487.75 85.01,486.50 C84.45,486.16 84.00,486.61 84.00,487.50 C84.00,488.39 84.43,488.85 84.95,488.53 C86.63,487.49 88.24,492.09 87.60,496.10 C87.22,498.46 87.56,501.58 88.48,504.22 C89.30,506.57 89.98,510.16 89.99,512.19 C89.99,514.22 90.45,516.16 91.00,516.50 C91.55,516.84 92.00,518.39 92.00,519.94 C92.00,521.49 92.68,523.32 93.50,524.00 C94.32,524.68 95.00,526.55 95.00,528.14 C95.00,529.73 95.41,531.81 95.91,532.76 C99.82,540.19 102.35,546.96 102.16,549.47 C102.01,551.43 102.60,552.96 103.89,553.97 C104.96,554.81 105.99,556.62 106.17,558.00 C106.35,559.38 107.40,560.98 108.50,561.56 C109.88,562.29 110.44,563.50 110.29,565.45 C110.15,567.39 110.82,568.86 112.41,570.11 C113.69,571.12 115.00,573.19 115.32,574.72 C115.64,576.25 117.50,579.90 119.45,582.84 C121.40,585.77 123.00,588.57 123.00,589.05 C123.00,589.53 123.87,590.40 124.93,590.96 C126.00,591.53 127.01,593.24 127.18,594.75 C127.45,597.06 127.94,597.47 130.25,597.31 C133.03,597.12 133.42,597.73 134.22,603.50 C134.37,604.60 135.96,606.82 137.75,608.43 C139.54,610.05 141.00,612.09 141.00,612.97 C141.00,614.85 158.03,633.00 159.79,633.00 C160.46,633.00 161.00,633.62 161.00,634.38 C161.00,636.07 172.17,646.05 175.84,647.66 C177.31,648.29 179.59,649.98 180.92,651.41 C182.26,652.83 183.95,654.00 184.68,654.00 C185.41,654.00 186.99,655.12 188.19,656.50 C189.38,657.88 190.85,659.00 191.44,659.00 C192.03,659.00 193.08,659.90 193.77,661.00 C194.50,662.17 196.10,663.00 197.62,663.00 C199.30,663.00 201.35,664.21 203.37,666.37 C208.22,671.60 217.00,675.17 217.00,671.92 C217.00,671.32 217.55,671.02 218.23,671.24 C218.90,671.47 219.47,672.69 219.48,673.96 C219.49,675.23 220.18,676.62 221.00,677.04 C225.46,679.34 237.98,685.00 238.61,685.00 C239.01,685.00 240.10,685.69 241.03,686.53 C242.68,688.02 243.62,688.31 251.00,689.61 C252.93,689.95 255.50,690.85 256.71,691.61 C257.93,692.38 260.41,693.00 262.21,693.01 C264.02,693.01 266.85,693.91 268.50,695.00 C270.32,696.21 273.19,696.99 275.82,696.99 C278.19,697.00 281.11,697.53 282.32,698.17 C284.59,699.39 293.88,700.75 305.00,701.49 C310.60,701.86 315.50,702.55 315.50,702.97 C315.50,703.04 317.75,703.39 320.50,703.75 C328.76,704.83 345.06,704.56 352.24,703.22 C355.95,702.53 361.80,701.77 365.24,701.54 C374.72,700.89 379.61,700.06 383.45,698.46 C385.37,697.66 388.86,696.99 391.22,696.98 C393.92,696.96 396.42,696.23 398.00,695.00 C399.38,693.92 401.67,693.03 403.11,693.02 C404.54,693.01 408.37,691.66 411.61,690.01 C414.85,688.37 418.17,687.02 419.00,687.01 C419.83,687.00 421.79,686.32 423.36,685.49 C424.94,684.67 427.39,684.00 428.80,684.00 C432.13,684.00 439.61,680.42 443.78,676.83 C445.59,675.27 447.85,674.00 448.81,674.00 C449.77,674.00 451.66,673.21 453.02,672.25 C454.37,671.29 457.02,670.05 458.91,669.49 C461.05,668.86 462.96,667.37 463.97,665.55 C464.92,663.83 466.82,662.30 468.55,661.84 C472.87,660.70 479.23,656.95 481.32,654.30 C482.33,653.04 483.79,652.00 484.57,652.00 C485.36,652.00 486.00,651.44 486.01,650.75 C486.01,650.06 487.37,648.73 489.04,647.78 C490.70,646.83 492.79,644.79 493.67,643.24 C494.61,641.62 497.22,639.60 499.85,638.47 C504.40,636.50 516.22,625.81 515.75,624.09 C515.20,622.09 519.23,617.36 527.30,610.52 C529.89,608.33 532.00,605.85 532.00,605.01 C532.00,604.17 532.90,602.92 534.00,602.23 C535.10,601.55 536.00,600.38 536.00,599.65 C536.00,598.91 536.90,597.50 538.00,596.50 C539.10,595.50 540.00,593.70 540.00,592.49 C540.00,591.25 542.77,586.94 546.33,582.67 C551.66,576.25 552.59,574.58 552.22,572.04 C551.86,569.59 552.22,568.86 554.14,568.12 C555.68,567.51 557.13,565.52 558.32,562.35 C559.32,559.68 560.79,556.02 561.57,554.22 C562.36,552.41 563.00,550.27 563.00,549.47 C563.00,548.66 563.67,548.00 564.50,548.00 C565.98,548.00 566.22,547.44 566.46,543.50 C566.78,538.32 568.43,532.28 570.13,530.12 C571.16,528.80 572.00,526.89 572.00,525.86 C572.00,524.83 572.90,522.31 574.00,520.26 C575.16,518.10 576.00,514.62 576.00,511.99 C576.00,509.49 576.64,506.53 577.42,505.42 C578.25,504.23 578.85,500.91 578.87,497.40 C578.88,494.11 579.34,490.24 579.88,488.81 C580.43,487.38 580.68,486.01 580.44,485.77 C580.20,485.53 580.73,483.22 581.61,480.64 C582.62,477.67 582.98,474.56 582.58,472.22 C581.82,467.69 581.83,469.07 582.35,449.00 C582.58,439.92 582.41,432.05 581.98,431.50 C581.21,430.52 580.26,422.72 579.63,412.30 C579.46,409.44 578.75,406.40 578.05,405.56 C577.18,404.51 577.01,402.84 577.54,400.26 L 578.30 396.50 L 579.13 400.00 C583.29,417.52 584.37,428.80 584.39,455.00 C584.41,478.47 584.15,482.93 582.11,494.00 C575.73,528.52 565.56,556.25 549.45,583.00 C521.98,628.63 479.59,665.80 432.53,685.51 C392.71,702.19 353.68,708.35 309.32,704.93 ZM 325.24 686.33 C323.45,686.08 320.75,685.23 319.24,684.44 C316.76,683.15 318.02,683.01 332.50,683.01 C347.81,683.01 348.37,683.08 345.50,684.63 C342.46,686.27 331.38,687.20 325.24,686.33 ZM 299.00 683.33 C294.88,682.65 288.80,681.65 285.50,681.11 C282.20,680.57 275.67,678.70 271.00,676.94 C266.33,675.18 260.25,673.54 257.50,673.28 C254.75,673.02 251.60,672.04 250.50,671.11 C249.40,670.17 246.02,668.57 243.00,667.55 C239.98,666.53 236.67,664.84 235.66,663.79 C234.34,662.43 233.03,662.05 231.07,662.49 C229.15,662.91 227.89,662.58 226.92,661.41 C226.16,660.48 223.54,658.88 221.11,657.83 C218.68,656.79 215.17,654.60 213.31,652.97 C211.45,651.34 209.45,650.00 208.87,650.00 C208.28,650.00 205.76,648.20 203.26,646.00 C200.76,643.80 197.88,642.00 196.86,642.00 C194.63,642.00 187.00,635.34 187.00,633.38 C187.00,632.57 185.96,632.00 184.48,632.00 C182.78,632.00 181.67,631.26 181.09,629.75 C180.10,627.15 162.60,610.31 159.25,608.74 C157.69,608.00 157.00,606.81 157.00,604.81 C157.00,602.78 156.35,601.69 154.75,601.05 C151.43,599.73 146.96,595.16 145.45,591.53 C144.71,589.77 143.41,587.76 142.56,587.05 C141.70,586.34 141.00,584.91 141.00,583.88 C141.00,582.84 140.53,582.00 139.95,582.00 C139.37,582.00 138.26,580.48 137.49,578.62 C136.71,576.76 135.38,574.98 134.54,574.65 C133.69,574.33 133.00,572.99 133.00,571.69 C133.00,570.38 132.10,568.50 131.00,567.50 C129.90,566.50 129.00,564.93 129.00,564.00 C129.00,563.07 128.10,561.50 127.00,560.50 C125.90,559.50 125.00,557.91 125.00,556.97 C125.00,556.02 124.32,554.68 123.50,554.00 C122.68,553.32 122.00,552.18 122.00,551.48 C122.00,550.78 120.72,547.77 119.16,544.80 C117.60,541.84 116.01,537.46 115.63,535.08 C115.25,532.70 114.01,528.72 112.89,526.25 C111.76,523.77 111.05,520.92 111.31,519.91 C111.58,518.91 110.85,516.38 109.70,514.29 C107.69,510.63 106.98,507.11 105.03,491.00 C104.52,486.88 103.65,479.93 103.09,475.56 C102.52,471.20 102.31,466.63 102.61,465.41 C102.93,464.14 102.44,462.08 101.47,460.59 C100.01,458.37 99.95,457.55 101.03,454.94 C101.91,452.81 102.10,449.19 101.66,443.05 C101.16,435.91 101.32,433.98 102.52,432.98 C104.32,431.49 104.38,429.69 102.79,425.29 C101.78,422.49 101.84,421.41 103.21,418.72 C105.05,415.11 106.01,410.67 106.39,404.00 C106.68,399.07 107.72,396.00 109.11,396.00 C109.60,396.00 110.00,393.84 110.00,391.19 C110.00,385.75 113.62,373.91 115.65,372.70 C116.39,372.26 117.00,370.44 117.00,368.65 C117.00,366.86 117.41,364.97 117.92,364.45 C119.32,363.00 127.00,347.81 127.00,346.48 C127.00,345.84 127.90,344.50 129.00,343.50 C130.09,342.51 132.14,339.18 133.55,336.10 C134.96,333.02 137.44,329.29 139.06,327.81 C140.84,326.17 142.00,324.11 142.00,322.56 C142.00,320.93 142.56,320.00 143.53,320.00 C144.37,320.00 145.36,319.21 145.72,318.25 C146.07,317.29 148.86,313.36 151.91,309.52 C154.96,305.68 157.55,301.87 157.67,301.06 C157.79,300.24 159.94,297.74 162.44,295.50 C164.95,293.26 167.00,291.06 167.00,290.61 C167.00,288.79 178.59,279.00 180.75,279.00 C181.99,279.00 183.00,278.57 183.00,278.04 C183.00,276.46 188.16,272.03 193.72,268.84 C196.60,267.19 198.85,265.31 198.72,264.67 C198.60,264.03 199.80,263.35 201.39,263.17 C203.22,262.96 206.09,261.05 209.27,257.92 C212.02,255.21 215.14,253.00 216.20,253.00 C218.99,253.00 222.00,251.17 222.00,249.46 C222.00,248.52 223.02,248.00 224.88,248.00 C226.46,248.00 228.32,247.32 229.00,246.50 C229.68,245.68 230.76,245.00 231.39,245.00 C232.02,245.00 234.21,244.10 236.26,243.00 C238.31,241.90 240.84,241.00 241.87,241.00 C242.91,241.00 244.32,240.32 245.00,239.50 C245.68,238.68 247.39,238.00 248.78,238.00 C250.18,238.00 253.39,236.69 255.91,235.08 C260.19,232.36 271.24,229.41 273.03,230.52 C273.46,230.79 275.13,230.26 276.72,229.35 C278.74,228.19 280.50,227.91 282.56,228.44 C285.11,229.10 283.87,229.65 273.25,232.57 C233.37,243.54 200.63,262.48 171.41,291.50 C133.74,328.91 111.16,375.66 104.98,429.06 C103.41,442.56 104.21,474.90 106.46,488.88 C112.30,525.24 128.43,563.56 149.46,591.03 C182.53,634.23 226.12,663.30 276.89,676.01 C289.22,679.10 306.54,682.00 312.66,682.00 C317.34,682.00 316.58,682.78 310.92,683.78 C308.23,684.26 303.56,684.08 299.00,683.33 ZM 352.51 683.12 C350.41,682.67 352.96,682.12 361.12,681.25 C374.89,679.79 397.24,674.36 412.50,668.77 C456.98,652.48 496.52,621.39 522.95,581.93 C550.79,540.36 563.26,497.00 561.72,447.14 C559.87,387.60 537.01,334.18 495.50,292.42 C473.01,269.79 451.72,255.27 423.29,243.16 C394.11,230.73 372.49,226.12 339.43,225.29 C319.72,224.80 301.98,225.97 288.52,228.66 C285.85,229.20 285.68,229.09 286.89,227.63 C287.66,226.71 289.72,226.00 291.66,226.00 C293.62,226.00 296.36,225.06 298.07,223.79 C300.66,221.87 301.46,221.73 304.11,222.74 C306.26,223.55 307.96,223.59 309.83,222.87 C312.93,221.68 353.63,221.41 362.28,222.51 C366.28,223.03 368.48,223.85 369.42,225.19 C370.53,226.77 371.47,227.00 374.43,226.45 C377.18,225.93 378.55,226.19 379.97,227.48 C381.31,228.69 382.73,229.00 384.83,228.54 C386.89,228.09 388.95,228.51 391.58,229.92 C393.96,231.19 396.27,231.72 397.79,231.34 C399.32,230.95 402.27,231.65 405.85,233.25 C416.88,238.16 419.09,239.00 420.91,239.00 C421.93,239.00 423.32,239.68 424.00,240.50 C424.68,241.32 426.04,242.00 427.00,242.00 C427.97,242.00 431.37,243.57 434.57,245.50 C437.77,247.43 441.28,249.00 442.39,249.00 C443.49,249.00 445.54,250.08 446.95,251.41 C448.35,252.73 452.65,255.52 456.50,257.59 C464.29,261.80 467.14,263.76 473.43,269.25 C475.79,271.31 478.22,273.00 478.83,273.00 C479.44,273.00 480.94,274.35 482.16,276.00 C483.38,277.65 484.79,279.00 485.29,279.00 C486.63,279.00 506.85,299.75 511.50,305.89 C513.70,308.80 516.52,311.58 517.76,312.07 C519.01,312.56 520.52,314.21 521.12,315.73 C521.72,317.25 522.70,319.40 523.29,320.50 C523.88,321.60 524.97,323.69 525.70,325.14 C526.44,326.60 527.71,328.34 528.52,329.02 C529.33,329.69 530.00,330.84 530.00,331.57 C530.00,332.29 530.84,333.47 531.87,334.19 C532.89,334.91 534.05,336.96 534.45,338.75 C534.84,340.56 535.79,342.00 536.58,342.00 C537.49,342.00 538.00,343.07 538.00,345.00 C538.00,346.65 538.83,348.83 539.85,349.85 C540.87,350.87 542.19,353.00 542.78,354.60 C543.37,356.19 545.69,361.89 547.93,367.25 C550.17,372.62 552.00,378.12 552.00,379.47 C552.00,380.86 552.82,382.37 553.89,382.94 C555.81,383.97 557.12,388.75 557.13,394.77 C557.14,396.57 557.78,399.27 558.56,400.77 C559.35,402.27 559.99,406.00 559.99,409.05 C560.00,412.10 560.51,415.11 561.14,415.74 C561.78,416.38 562.24,419.67 562.19,423.19 C562.13,427.81 562.63,430.40 564.09,432.87 C565.78,435.75 565.91,436.75 564.94,439.67 C564.29,441.65 564.08,445.29 564.45,448.30 C565.50,456.94 565.43,460.23 564.10,466.50 C563.39,469.80 562.67,477.00 562.49,482.50 C562.31,488.00 561.69,494.52 561.11,497.00 C560.52,499.48 560.04,502.74 560.02,504.25 C560.01,505.77 558.88,509.34 557.50,512.19 C556.12,515.04 555.00,518.36 555.00,519.57 C555.00,520.78 554.34,523.05 553.53,524.61 C552.72,526.17 551.76,529.48 551.39,531.97 C551.03,534.46 549.89,537.69 548.87,539.15 C547.84,540.61 547.00,542.23 547.00,542.75 C547.00,544.42 543.74,550.45 541.85,552.29 C540.83,553.27 539.99,555.07 539.97,556.29 C539.95,557.51 539.28,559.37 538.47,560.44 C537.66,561.51 537.00,563.53 536.99,564.94 C536.99,566.50 535.34,569.43 532.78,572.41 C530.46,575.11 528.55,578.25 528.53,579.38 C528.51,580.54 527.43,581.97 526.04,582.66 C524.69,583.34 522.52,585.79 521.21,588.12 C519.90,590.45 516.62,594.89 513.92,598.00 C511.21,601.11 509.00,604.08 509.00,604.61 C509.00,605.95 499.75,615.50 497.67,616.29 C496.73,616.66 495.67,617.75 495.33,618.73 C494.47,621.18 486.25,628.69 481.96,630.96 C480.01,631.99 476.41,635.01 473.97,637.67 C470.71,641.21 468.60,642.63 466.02,643.00 C462.99,643.43 462.55,643.83 462.84,645.89 C463.22,648.61 461.62,649.96 458.00,649.99 C456.62,650.00 453.13,651.81 450.23,654.00 C447.33,656.20 444.06,658.00 442.97,658.00 C441.88,658.00 440.21,658.90 439.27,660.00 C438.33,661.10 436.63,662.00 435.50,662.00 C434.37,662.00 432.67,662.90 431.73,664.00 C430.79,665.10 428.92,666.00 427.57,666.00 C426.22,666.00 424.84,666.45 424.50,667.00 C424.16,667.55 422.63,668.00 421.10,668.00 C419.56,668.00 417.50,668.90 416.50,670.00 C415.50,671.10 413.90,672.00 412.93,672.00 C411.96,672.00 409.89,672.63 408.33,673.40 C405.04,675.04 397.01,677.00 393.64,677.00 C392.36,677.00 389.89,677.71 388.17,678.57 C386.44,679.43 384.59,679.86 384.06,679.54 C383.52,679.21 381.44,679.63 379.42,680.47 C377.41,681.31 373.36,682.00 370.44,682.00 C367.51,682.00 364.84,682.45 364.50,683.00 C363.83,684.08 357.31,684.15 352.51,683.12 ZM 325.50 613.33 C301.92,610.38 277.94,598.62 257.11,579.77 C249.89,573.23 239.81,562.04 240.19,560.98 C240.36,560.51 244.31,557.26 248.97,553.75 L 257.44 547.36 L 266.12 556.12 C277.00,567.10 288.88,575.88 300.58,581.59 C313.49,587.90 321.41,589.96 335.50,590.64 C349.54,591.32 359.38,589.39 371.84,583.49 C388.45,575.62 406.22,559.62 417.57,542.30 C420.75,537.46 423.64,533.14 424.01,532.71 C424.91,531.65 444.00,540.86 444.00,542.34 C443.99,546.57 426.00,570.87 415.35,581.04 C397.41,598.18 375.48,609.59 354.00,612.96 C347.83,613.93 331.97,614.13 325.50,613.33 ZM 348.00 610.41 C361.60,609.99 370.61,607.59 374.02,603.48 C374.69,602.67 376.74,602.00 378.56,602.00 C382.92,602.00 387.00,600.39 387.00,598.68 C387.00,597.92 388.69,596.57 390.75,595.68 C396.28,593.30 400.16,590.82 403.20,587.74 C404.69,586.23 406.82,585.00 407.94,585.00 C409.20,585.00 411.36,583.13 413.69,580.00 C415.75,577.25 417.76,575.00 418.17,575.00 C418.58,575.00 420.08,573.02 421.50,570.59 C422.92,568.17 424.72,565.94 425.50,565.64 C426.28,565.34 428.07,562.82 429.48,560.05 C431.25,556.54 432.64,555.00 434.02,555.00 C435.61,555.00 436.00,554.32 436.00,551.56 C436.00,549.20 436.66,547.65 438.09,546.65 C440.68,544.84 440.24,541.61 437.34,541.19 C436.17,541.03 434.42,540.01 433.45,538.94 C430.71,535.92 425.90,536.40 422.95,540.00 C421.60,541.64 419.49,544.23 418.25,545.75 C417.01,547.26 416.00,549.08 416.00,549.78 C416.00,550.48 413.31,553.86 410.02,557.28 C406.72,560.70 404.02,564.06 404.02,564.75 C404.01,565.44 403.39,566.00 402.65,566.00 C401.91,566.00 400.27,566.90 399.00,568.00 C397.73,569.10 396.30,570.00 395.82,570.00 C395.34,570.00 394.52,571.12 394.00,572.50 C393.46,573.93 392.25,575.00 391.19,575.00 C390.17,575.00 388.14,576.34 386.68,577.98 C385.22,579.62 382.78,581.23 381.26,581.56 C376.71,582.56 376.00,582.89 376.00,583.99 C376.00,584.57 377.15,585.49 378.56,586.02 C381.39,587.10 380.99,589.00 377.94,589.00 C376.67,589.00 376.00,588.31 376.00,587.00 C376.00,584.54 373.35,584.37 370.14,586.62 C368.87,587.51 366.28,588.38 364.39,588.57 C362.50,588.75 360.26,589.60 359.41,590.45 C358.55,591.30 357.10,592.05 356.18,592.10 C341.14,593.00 327.02,592.80 324.00,591.63 C322.08,590.88 319.94,590.48 319.26,590.72 C318.58,590.96 316.55,590.69 314.76,590.11 C312.97,589.54 309.96,588.81 308.08,588.49 C303.85,587.77 303.00,587.27 303.00,585.44 C303.00,584.52 301.96,584.00 300.12,584.00 C298.54,584.00 296.68,583.33 296.00,582.50 C295.32,581.67 293.87,581.00 292.78,581.00 C291.68,581.00 290.59,580.15 290.31,579.07 C289.79,577.08 287.41,575.63 286.04,576.47 C285.62,576.74 284.46,576.06 283.48,574.98 C282.49,573.89 281.10,573.00 280.38,573.00 C279.66,573.00 277.59,571.76 275.78,570.25 C273.97,568.74 271.59,567.00 270.50,566.40 C269.40,565.79 268.35,564.30 268.17,563.09 C267.99,561.87 266.77,560.48 265.41,559.97 C264.07,559.46 262.46,557.91 261.83,556.52 C261.20,555.13 260.27,554.00 259.78,554.00 C259.29,554.00 259.13,553.60 259.43,553.11 C259.73,552.63 259.31,551.67 258.50,551.00 C257.30,550.00 256.53,550.21 254.41,552.14 C251.79,554.51 249.17,557.13 246.45,560.08 C244.12,562.62 244.74,564.70 248.71,567.70 C253.16,571.06 261.68,579.72 262.41,581.63 C262.70,582.38 263.71,583.00 264.65,583.00 C265.60,583.00 268.51,584.80 271.12,587.00 C273.72,589.20 276.19,591.00 276.60,591.00 C277.00,591.00 278.04,591.69 278.92,592.53 C282.98,596.44 289.91,600.66 294.00,601.71 C298.70,602.91 302.45,604.35 305.00,605.92 C306.43,606.80 314.89,609.12 323.50,610.97 C325.70,611.45 330.42,611.57 334.00,611.24 C337.58,610.91 343.88,610.54 348.00,610.41 ZM 105.00 517.44 C105.00,516.58 105.45,516.16 106.00,516.50 C106.55,516.84 107.00,517.54 107.00,518.06 C107.00,518.58 106.55,519.00 106.00,519.00 C105.45,519.00 105.00,518.30 105.00,517.44 ZM 235.42 470.63 C225.38,466.90 219.46,461.61 214.26,451.71 C211.77,446.99 211.51,445.50 211.51,436.00 C211.50,426.59 211.78,424.92 214.22,419.97 C217.69,412.90 224.90,405.69 231.97,402.22 C236.87,399.81 238.64,399.50 247.50,399.50 C256.21,399.50 258.21,399.84 263.00,402.11 C284.11,412.13 291.52,437.90 278.67,456.63 C269.13,470.55 250.98,476.42 235.42,470.63 ZM 255.85 469.90 C257.58,469.30 259.00,468.40 259.00,467.90 C259.00,467.41 260.32,467.00 261.93,467.00 C264.02,467.00 265.45,466.17 266.91,464.13 C268.03,462.55 270.20,460.74 271.72,460.11 C273.78,459.25 275.46,456.94 278.17,451.22 C282.70,441.68 283.78,434.68 281.63,428.77 C280.77,426.42 279.62,422.70 279.06,420.50 C278.41,417.89 277.26,416.15 275.78,415.50 C274.53,414.95 273.06,413.49 272.51,412.25 C271.97,411.01 270.72,410.00 269.74,410.00 C268.75,410.00 267.52,408.88 266.99,407.48 C265.91,404.63 262.45,403.00 257.49,403.00 C255.64,403.00 253.86,402.59 253.55,402.09 C252.51,400.40 245.06,399.71 243.33,401.14 C242.44,401.88 240.62,402.33 239.28,402.16 C237.94,401.98 235.99,402.60 234.96,403.54 C233.92,404.48 232.40,404.98 231.57,404.66 C229.63,403.92 226.91,406.61 227.65,408.53 C228.03,409.52 227.56,410.00 226.20,410.00 C224.85,410.00 223.84,411.03 223.09,413.16 C222.49,414.90 221.71,416.04 221.36,415.70 C219.99,414.32 217.00,417.16 217.00,419.85 C217.00,421.37 216.19,423.50 215.20,424.56 C212.53,427.44 212.46,444.91 215.11,446.78 C216.11,447.48 217.23,449.71 217.61,451.73 C218.38,455.85 226.99,465.00 230.10,465.00 C231.09,465.00 233.09,466.10 234.55,467.46 C236.52,469.28 237.91,469.77 239.98,469.35 C241.53,469.04 243.06,469.29 243.44,469.90 C244.31,471.32 251.79,471.32 255.85,469.90 ZM 404.03 456.46 C392.95,453.36 382.92,444.49 378.83,434.15 C375.37,425.40 375.60,413.48 379.38,405.28 C382.54,398.42 390.08,390.51 396.57,387.25 C418.96,375.99 445.60,389.51 449.90,414.31 C454.41,440.32 429.20,463.49 404.03,456.46 ZM 418.93 454.88 C420.89,454.26 423.40,453.28 424.50,452.71 C425.60,452.13 427.85,451.38 429.50,451.04 C431.42,450.64 432.97,449.44 433.80,447.71 C434.52,446.22 435.91,445.00 436.89,445.00 C439.01,445.00 444.43,438.53 445.28,435.00 C445.60,433.62 446.65,429.92 447.60,426.76 C449.05,421.91 449.14,420.35 448.11,416.76 C444.53,404.19 443.85,402.86 437.69,396.60 C430.45,389.24 428.40,388.00 423.51,388.00 C421.52,388.00 418.10,386.99 415.90,385.75 C412.20,383.66 411.81,383.62 410.64,385.18 C409.69,386.45 408.41,386.73 405.40,386.33 C401.83,385.85 401.29,386.07 400.23,388.40 C399.54,389.90 398.22,391.00 397.10,391.00 C394.73,391.00 389.33,395.38 388.51,397.98 C388.18,399.02 386.91,400.01 385.70,400.19 C384.08,400.42 383.42,401.29 383.19,403.50 C383.02,405.15 382.30,406.95 381.59,407.50 C379.37,409.23 377.21,422.61 378.89,424.29 C379.50,424.90 380.00,426.70 380.00,428.29 C380.00,429.88 380.90,432.33 382.00,433.73 C383.10,435.13 384.00,437.00 384.00,437.90 C384.00,442.30 393.39,451.00 398.13,451.00 C398.80,451.00 400.12,451.70 401.07,452.56 C402.02,453.42 404.21,454.17 405.94,454.22 C407.66,454.27 409.31,454.69 409.59,455.15 C410.33,456.34 414.70,456.21 418.93,454.88 ZM 576.08 394.15 C575.49,393.04 574.97,391.31 574.93,390.32 C574.81,387.48 571.45,382.49 569.74,382.62 C568.17,382.75 568.04,380.23 569.45,376.84 C569.83,375.93 569.44,373.81 568.57,372.14 C567.71,370.47 567.00,368.33 567.00,367.40 C567.00,366.46 565.65,362.84 564.00,359.34 C562.35,355.85 561.00,352.11 561.00,351.03 C561.00,349.95 560.10,348.59 559.00,348.00 C557.90,347.41 557.00,346.04 557.00,344.96 C557.00,343.87 556.10,342.21 555.00,341.27 C553.90,340.33 553.00,338.42 552.99,337.03 C552.98,334.19 547.50,324.00 545.98,324.00 C545.44,324.00 545.00,323.41 545.00,322.68 C545.00,321.95 543.88,320.38 542.50,319.19 C541.12,317.99 540.00,316.11 540.00,315.01 C540.00,313.44 539.34,313.00 537.00,313.00 C534.76,313.00 534.00,312.54 534.00,311.18 C534.00,310.18 533.29,307.28 532.43,304.74 C531.30,301.44 530.25,300.03 528.74,299.81 C527.35,299.61 526.34,298.46 525.81,296.50 C524.90,293.08 517.50,285.10 510.65,280.13 C508.09,278.28 506.00,276.26 505.99,275.63 C505.99,274.64 504.77,273.25 498.00,266.55 C497.17,265.74 495.93,264.39 495.24,263.56 C494.28,262.42 493.37,262.29 491.42,263.03 C487.95,264.35 487.77,264.29 488.50,262.01 C489.35,259.32 479.94,250.35 474.79,248.95 C472.75,248.40 470.81,247.51 470.48,246.97 C470.15,246.43 466.78,243.97 463.00,241.50 C459.22,239.03 455.85,236.56 455.50,236.01 C455.16,235.45 453.57,235.00 451.98,235.00 C450.09,235.00 448.69,234.30 448.00,233.00 C447.39,231.86 445.91,231.00 444.54,231.00 C443.22,231.00 441.55,230.41 440.82,229.70 C438.70,227.61 430.58,224.00 428.00,224.00 C426.70,224.00 424.66,223.09 423.48,221.98 C422.19,220.77 418.46,219.42 414.16,218.60 C410.21,217.84 406.36,216.71 405.60,216.08 C404.01,214.76 391.01,211.00 388.05,211.00 C386.96,211.00 385.56,210.06 384.95,208.90 C383.88,206.92 384.00,206.84 387.16,207.50 C421.79,214.70 461.49,233.89 491.50,257.95 C501.42,265.90 520.50,284.95 528.80,295.19 C547.32,318.05 562.32,345.33 572.15,374.00 C576.94,388.00 579.33,400.22 576.08,394.15 ZM 515.47 303.95 C514.52,302.41 515.82,301.42 517.10,302.70 C517.82,303.42 517.84,303.98 517.16,304.40 C516.60,304.75 515.84,304.55 515.47,303.95 ZM 446.64 248.31 C445.51,247.18 445.95,246.00 447.50,246.00 C448.33,246.00 449.00,246.42 449.00,246.94 C449.00,248.20 447.44,249.11 446.64,248.31 ZM 433.69 547.36 C432.89,546.56 433.80,545.00 435.06,545.00 C435.58,545.00 436.00,545.67 436.00,546.50 C436.00,548.05 434.82,548.49 433.69,547.36 ZM 398.50 445.00 C398.16,444.45 398.56,444.00 399.38,444.00 C400.21,444.00 401.16,444.45 401.50,445.00 C401.84,445.55 401.44,446.00 400.62,446.00 C399.79,446.00 398.84,445.55 398.50,445.00 ZM 443.00 424.06 C443.00,422.99 443.45,421.84 444.00,421.50 C444.57,421.15 445.00,421.99 445.00,423.44 C445.00,424.85 444.55,426.00 444.00,426.00 C443.45,426.00 443.00,425.13 443.00,424.06 Z" fill="rgb(63,179,247)"/>
</g>
</svg>